<?xml version="1.0" encoding="UTF-8"?>
<svg version="1.1" xmlns="http://www.w3.org/2000/svg" width="1024" height="1024">
<path d="M0 0 C6.3467524 3.1733762 10.22734381 17.45011781 12.41015625 23.96484375 C19.54467426 48.9492205 18.68493935 76.79257602 5.96044922 99.88671875 C-8.64435234 125.4931025 -31.0002013 139.84271083 -56.625 153 C-75.41648325 162.66871008 -93.69914127 174.1831268 -101.1550293 195.04492188 C-104.4617033 206.6092045 -104.34703459 219.111143 -104.31567383 231.0456543 C-104.31249801 233.5640743 -104.33614779 236.08133181 -104.36132812 238.59960938 C-104.41540708 251.82397538 -103.57587835 264.78926105 -97.0625 276.625 C-96.72798828 277.27855469 -96.39347656 277.93210937 -96.04882812 278.60546875 C-94.05163363 282.41514611 -91.81054594 285.71788595 -89 289 C-90.28923981 291.78823237 -91.68619531 293.98996602 -93.72265625 296.28515625 C-94.52328491 297.19599976 -94.52328491 297.19599976 -95.34008789 298.12524414 C-95.90848389 298.76453857 -96.47687988 299.40383301 -97.0625 300.0625 C-98.25119122 301.41562113 -99.43868682 302.7697935 -100.625 304.125 C-101.20507812 304.78757812 -101.78515625 305.45015625 -102.3828125 306.1328125 C-104.49313899 308.56937304 -106.53442314 311.05722858 -108.5625 313.5625 C-111.97137147 317.77198715 -115.46403364 321.89757094 -119 326 C-122.57310902 330.1469584 -126.10726155 334.31607994 -129.5625 338.5625 C-132.98585824 342.76190289 -136.41183838 346.95835691 -139.875 351.125 C-140.5721814 351.97880249 -140.5721814 351.97880249 -141.28344727 352.84985352 C-143.48304943 355.4810818 -144.68086174 356.89362058 -148 358 C-148.53367187 357.33355469 -149.06734375 356.66710937 -149.6171875 355.98046875 C-153.62483591 351.02291059 -157.68165828 346.19061256 -162 341.5 C-166.11378909 337.0301488 -169.97087297 332.40955107 -173.78515625 327.68359375 C-175.95632827 325.05291443 -178.20241357 322.52057576 -180.5 320 C-184.34965206 315.77071097 -187.98442351 311.40541574 -191.58203125 306.9609375 C-195.97867546 301.57700161 -200.49658545 296.29466869 -205 291 C-203.4230958 287.78705769 -201.80304396 284.61116246 -200.0625 281.484375 C-186.72777398 257.47548027 -185.97946414 223.635355 -192 197 C-194.58012099 188.25683697 -198.93558397 181.72384768 -205 175 C-205.50917969 174.39800781 -206.01835937 173.79601562 -206.54296875 173.17578125 C-216.17810001 162.54989099 -230.0836924 156.28328567 -242.63574219 149.90576172 C-251.84405609 145.1872331 -260.50331866 139.89278397 -269 134 C-269.99531738 133.33097656 -269.99531738 133.33097656 -271.01074219 132.6484375 C-272.71048118 131.48406948 -274.36039261 130.24761899 -276 129 C-276 128.34 -276 127.68 -276 127 C-276.55300781 126.77699219 -277.10601562 126.55398438 -277.67578125 126.32421875 C-293.2736491 117.43736631 -301.68342255 95.99878436 -307.03125 79.89453125 C-314.20646463 53.1535693 -307.69937189 24.82768745 -295 1 C-294.34 1 -293.68 1 -293 1 C-293.10828125 1.88171875 -293.10828125 1.88171875 -293.21875 2.78125 C-296.46932463 34.20347141 -294.31408305 70.65292102 -274 96.5625 C-272.68098969 98.05445295 -271.34778448 99.53398881 -270 101 C-269.34902344 101.80179687 -268.69804687 102.60359375 -268.02734375 103.4296875 C-256.95516916 116.71629701 -241.97740685 124.43832614 -227.05859375 132.640625 C-203.05926368 145.86360219 -183.88454865 160.17955617 -175.578125 187.3203125 C-173.83603215 195.39514829 -173.84002836 203.52123064 -173.83203125 211.7421875 C-173.82870285 212.94634308 -173.82537445 214.15049866 -173.82194519 215.3911438 C-173.81690323 217.9275881 -173.81453602 220.46403897 -173.81469727 223.00048828 C-173.81251083 226.85590659 -173.79432565 230.71103845 -173.77539062 234.56640625 C-173.77245603 237.0416657 -173.77047168 239.51692649 -173.76953125 241.9921875 C-173.76234573 243.13211151 -173.75516022 244.27203552 -173.74775696 245.44650269 C-173.7945059 262.02837642 -178.82756508 274.73334386 -187 289 C-178.38209558 300.56366084 -168.62275429 311.27251863 -159 322 C-157.97117404 317.19881219 -158.08421814 312.96241022 -158.5 308.0625 C-158.94379245 302.7538435 -158.8128118 298.23812047 -158 293 C-157.62463927 287.85117764 -157.62463927 287.85117764 -159 283 C-158.34 283 -157.68 283 -157 283 C-157.165 281.7625 -157.33 280.525 -157.5 279.25 C-158.05992185 274.35068379 -158.03931422 269.52682556 -157.9375 264.6015625 C-157.87550417 261.88456759 -157.87550417 261.88456759 -159 259 C-158.66666667 257.33333333 -158.33333333 255.66666667 -158 254 C-158.33 253.01 -158.66 252.02 -159 251 C-158.835 250.236875 -158.67 249.47375 -158.5 248.6875 C-157.91450451 245.54046172 -158.44381301 243.12855183 -159 240 C-158.67 239.34 -158.34 238.68 -158 238 C-158.33 237.01 -158.66 236.02 -159 235 C-158.66666667 233.33333333 -158.33333333 231.66666667 -158 230 C-158.33 229.01 -158.66 228.02 -159 227 C-158.87995198 224.36494605 -158.70520786 221.75353621 -158.5 219.125 C-157.81227826 208.98514973 -158.20125693 198.93313659 -158.68164062 188.78955078 C-158.76188477 186.99493408 -158.76188477 186.99493408 -158.84375 185.1640625 C-158.92399414 183.56232178 -158.92399414 183.56232178 -159.00585938 181.92822266 C-159.00024899 179.12443101 -158.57312015 176.73175656 -158 174 C-158.30588945 171.99561911 -158.64085579 169.99552663 -159 168 C-158.99471876 165.89542746 -158.95203915 163.79066867 -158.875 161.6875 C-158.81936936 153.55615451 -160.19239936 146.98908817 -166 141 C-166.99 140.34 -167.98 139.68 -169 139 C-169 138.34 -169 137.68 -169 137 C-170.5050995 135.12011288 -172.03890309 133.30909774 -173.625 131.5 C-183.20787217 120.21639602 -189.92248525 108.1149593 -189.3203125 92.83984375 C-187.0367513 72.59412436 -171.73014552 56.70629787 -156.70703125 44.20703125 C-148.89761636 37.99651411 -148.89761636 37.99651411 -145.98828125 38.0078125 C-143.21657863 39.39094111 -141.05349306 41.18962467 -138.6875 43.1875 C-137.72585938 43.99703125 -136.76421875 44.8065625 -135.7734375 45.640625 C-134.85820313 46.41921875 -133.94296875 47.1978125 -133 48 C-132.24976563 48.61359375 -131.49953125 49.2271875 -130.7265625 49.859375 C-129.11045927 51.19183562 -127.54830155 52.58932525 -126 54 C-126 54.66 -126 55.32 -126 56 C-125.01 56.33 -124.02 56.66 -123 57 C-112.39535914 67.7690539 -105.27958193 80.57560068 -104.625 95.75 C-104.87622435 107.38020972 -109.33228955 116.6968878 -116 126 C-116.56589844 126.81210937 -117.13179687 127.62421875 -117.71484375 128.4609375 C-120.61753517 132.50625317 -120.61753517 132.50625317 -122 134 C-122.66 134 -123.32 134 -124 134 C-124.40412109 134.86044922 -124.40412109 134.86044922 -124.81640625 135.73828125 C-126.41802166 138.79879387 -128.43917062 141.50054467 -130.46484375 144.29296875 C-135.59878447 153.34594818 -135.41355593 162.25615125 -135.34057617 172.35180664 C-135.33972884 173.99843327 -135.34020712 175.64506104 -135.34190369 177.29168701 C-135.34276091 181.73945987 -135.32517956 186.18698772 -135.30418181 190.63470387 C-135.28536933 195.29116003 -135.28366098 199.94762242 -135.28010559 204.60411072 C-135.27079852 213.41181595 -135.24620291 222.21940886 -135.21605712 231.02706474 C-135.18247138 241.05850567 -135.16601662 251.08995209 -135.15097082 261.12143528 C-135.11965213 281.7476861 -135.06691775 302.37383596 -135 323 C-133.24571009 320.93009295 -131.49186954 318.85980796 -129.73828125 316.78930664 C-128.99922546 315.9174258 -128.99922546 315.9174258 -128.24523926 315.02793121 C-124.4446969 310.53949939 -120.69777548 306.01106441 -117 301.4375 C-116.45472656 300.76654297 -115.90945313 300.09558594 -115.34765625 299.40429688 C-114.32366412 298.14120634 -113.30492915 296.87382468 -112.29296875 295.60107422 C-111.25585647 294.31682529 -110.16690066 293.0745207 -109.0625 291.84765625 C-107.7991247 290.02474226 -107.7991247 290.02474226 -108.0703125 287.71484375 C-109.52926084 283.4544694 -111.73344952 279.58425699 -113.94140625 275.67382812 C-119.54374089 265.10436779 -120.46372363 253.27211049 -120.43359375 241.5078125 C-120.4388356 240.27819794 -120.44407745 239.04858337 -120.44947815 237.78170776 C-120.45585102 235.20197295 -120.45462351 232.62220889 -120.44604492 230.04248047 C-120.43753504 226.14106447 -120.46636715 222.24111588 -120.49804688 218.33984375 C-120.56965595 193.34428681 -116.61686753 173.59292175 -98.9375 154.80859375 C-88.51401768 144.69274893 -75.18132412 137.51251082 -62.36376953 130.86694336 C-51.80958143 125.35238723 -42.07690664 118.71301912 -33 111 C-32.22269531 110.34515625 -31.44539063 109.6903125 -30.64453125 109.015625 C-26.80057655 105.93303591 -26.80057655 105.93303591 -24 102 C-23.34 102 -22.68 102 -22 102 C-21.75765625 101.47148437 -21.5153125 100.94296875 -21.265625 100.3984375 C-19.97056692 97.94422251 -18.4802174 95.68079899 -16.9284668 93.3828125 C-0.48941533 68.86216394 4.42766078 38.827409 0.47265625 9.890625 C0.06523347 6.53696314 -0.09011209 3.37125241 0 0 Z M-147 56 C-149.72123504 58.63282437 -152.42439396 61.28353271 -155.125 63.9375 C-156.26582031 65.04061523 -156.26582031 65.04061523 -157.4296875 66.16601562 C-166.57311907 75.19121317 -173.04278627 83.96774197 -173.375 97.0625 C-173.13352342 106.52033284 -169.31701784 112.49211456 -164 120 C-163.45472656 120.77601563 -162.90945313 121.55203125 -162.34765625 122.3515625 C-160.27600385 125.25829998 -160.27600385 125.25829998 -158 128 C-157.34 128 -156.68 128 -156 128 C-155.74476563 128.56203125 -155.48953125 129.1240625 -155.2265625 129.703125 C-153.84307219 132.29386482 -152.20061417 134.45107845 -150.375 136.75 C-149.74335938 137.54921875 -149.11171875 138.3484375 -148.4609375 139.171875 C-147.97882813 139.77515625 -147.49671875 140.3784375 -147 141 C-143.73644083 137.8936306 -140.96506028 134.52006291 -138.25 130.9375 C-137.81606934 130.36676758 -137.38213867 129.79603516 -136.93505859 129.20800781 C-136.04769959 128.0376427 -135.16211153 126.86593272 -134.27832031 125.69287109 C-133.09733942 124.12890595 -131.90464935 122.57380112 -130.7109375 121.01953125 C-124.41873884 112.66528246 -119.60149477 104.77624563 -120 94 C-122.28769991 79.8998496 -132.17781262 68.60225151 -143 60 C-144.34304758 58.67645221 -145.67789414 57.34446705 -147 56 Z M-137 324 C-136 326 -136 326 -136 326 Z " fill="#C8985E" transform="translate(658,202)"/>
<path d="M0 0 C3.0625 0.125 3.0625 0.125 5.0625 1.125 C6.53903761 1.35438614 8.02244095 1.54048229 9.5078125 1.703125 C42.3443205 5.55126759 72.50545243 19.22666234 93.7019043 45.53613281 C99.29513403 52.65153734 103.86431613 60.11852838 108.0625 68.125 C108.60777344 69.14980469 109.15304687 70.17460937 109.71484375 71.23046875 C115.73362038 83.31396687 121.8154533 100.41378112 120.0625 114.125 C118.27770995 118.0161639 115.9164513 120.96144846 113.0625 124.125 C112.50175781 124.82882812 111.94101562 125.53265625 111.36328125 126.2578125 C107.59423963 130.94775346 107.59423963 130.94775346 104.0625 132.125 C104.08570313 131.39539063 104.10890625 130.66578125 104.1328125 129.9140625 C104.49502014 108.95776339 101.18645609 87.28519338 90.0625 69.125 C89.4025 68.465 88.7425 67.805 88.0625 67.125 C87.546875 66.155625 87.03125 65.18625 86.5 64.1875 C73.61041681 41.34640037 49.47411298 27.24020175 24.96875 20.16015625 C-0.78500121 13.12440244 -29.32623003 17.58158073 -52.5 30.5625 C-77.78390883 45.32212672 -93.75670097 67.90277025 -101.42895508 95.87231445 C-103.65370488 104.40003987 -104.18217369 112.78319939 -104.5 121.5625 C-104.54318359 122.67560547 -104.58636719 123.78871094 -104.63085938 124.93554688 C-104.73629888 127.66525844 -104.83842029 130.39505143 -104.9375 133.125 C-105.5975 133.125 -106.2575 133.125 -106.9375 133.125 C-109.9375 129.66346154 -109.9375 129.66346154 -109.9375 127.125 C-110.9275 126.795 -111.9175 126.465 -112.9375 126.125 C-114.7265625 124.05078125 -114.7265625 124.05078125 -116.5625 121.4375 C-117.17351562 120.58800781 -117.78453125 119.73851562 -118.4140625 118.86328125 C-123.49266649 109.73481612 -119.38025091 97.15631741 -116.75 87.61328125 C-106.97839508 54.95005359 -85.31768258 30.28589543 -55.6015625 14.0703125 C-46.50351438 9.21139652 -46.50351438 9.21139652 -41.9375 8.125 C-40.74125 7.75503906 -39.545 7.38507813 -38.3125 7.00390625 C-28.1379028 3.90580781 -18.37781787 2.28913965 -7.77734375 1.484375 C-3.96689233 1.12775086 -3.54845588 0.15099812 0 0 Z " fill="#C8985D" transform="translate(511.9375,167.875)"/>
<path d="M0 0 C3.30059858 1.65029929 4.99852574 2.81865 7.45703125 5.390625 C9.38951004 7.40627376 11.38537185 9.35327363 13.375 11.3125 C16.1736825 14.10657182 18.86558857 16.93389658 21.4375 19.9375 C24.15619248 23.1103592 27.02751675 26.06338382 30 29 C33.58558699 32.54232199 36.94891662 36.17555661 40.22265625 40.00390625 C42.94733093 43.06392551 45.88878072 45.89706844 48.8046875 48.7734375 C51.43879085 51.44503698 53.87540162 54.25075709 56.31640625 57.09765625 C58.47708384 59.53907154 60.77794325 61.80924726 63.12890625 64.06640625 C65.88880714 66.91849589 68.41713142 69.98665333 71 73 C71.33 49.9 71.66 26.8 72 3 C77.28 3 82.56 3 88 3 C88.72111103 10.13286456 89.14894144 17.13879074 89.14526367 24.30493164 C89.14862228 25.26892883 89.1519809 26.23292603 89.15544128 27.22613525 C89.1648409 30.37082245 89.16688779 33.51545594 89.16796875 36.66015625 C89.17118544 38.85924806 89.17454982 41.05833966 89.17805481 43.25743103 C89.18401589 47.84407041 89.18589747 52.43069101 89.18530273 57.01733398 C89.18520046 62.90549828 89.19893264 68.79354374 89.21607494 74.68167973 C89.22715889 79.21197571 89.22922318 83.74224242 89.22869301 88.27255058 C89.2298755 90.44515841 89.23431223 92.61776694 89.24202538 94.7903614 C89.25176647 97.81353455 89.24897231 100.8364422 89.24291992 103.85961914 C89.24853943 104.76087021 89.25415894 105.66212128 89.25994873 106.59068298 C89.2283259 112.7716741 89.2283259 112.7716741 87 115 C83 110.25 83 110.25 83 108 C82.34 108 81.68 108 81 108 C79.66015625 106.63671875 79.66015625 106.63671875 78.0625 104.6875 C74.59377117 100.59599313 70.87120949 96.83839276 67.0534668 93.07348633 C63.79013164 89.83594829 60.74309269 86.48608726 57.76953125 82.984375 C54.91793313 79.78655636 51.81495477 76.84605015 48.72265625 73.8828125 C47 72 47 72 47 70 C46.34 70 45.68 70 45 70 C43.625 68.6015625 43.625 68.6015625 42 66.625 C38.23777988 62.17078591 34.13941718 58.14316468 29.94140625 54.1015625 C28 52 28 52 28 50 C27.34 50 26.68 50 26 50 C24.30859375 48.28515625 24.30859375 48.28515625 22.4375 46.0625 C21.81746094 45.33160156 21.19742187 44.60070312 20.55859375 43.84765625 C20.04425781 43.23792969 19.52992188 42.62820313 19 42 C18.505 41.505 18.505 41.505 18 41 C16.72172783 47.83548496 16.89151283 54.62039168 16.9375 61.5546875 C16.94328386 63.53622976 16.94906237 65.51777206 16.95451355 67.49931526 C16.96540596 70.95789671 16.98293162 74.41644443 17 77.875 C17.02037275 82.02612797 17.03956871 86.1772363 17.05102539 90.32839966 C17.05859191 92.90920764 17.07069579 95.49000686 17.08764648 98.07077026 C17.09260132 99.80860275 17.09260132 99.80860275 17.09765625 101.58154297 C17.10551147 103.11873489 17.10551147 103.11873489 17.11352539 104.6869812 C17 107 17 107 16 108 C10.72 108 5.44 108 0 108 C0 72.36 0 36.72 0 0 Z " fill="#C9995E" transform="translate(408,589)"/>
<path d="M0 0 C1.1127832 -0.01836914 1.1127832 -0.01836914 2.24804688 -0.03710938 C4.18763629 -0.04238478 6.1267371 0.06561098 8.0625 0.1875 C8.7225 0.8475 9.3825 1.5075 10.0625 2.1875 C9.4025 2.1875 8.7425 2.1875 8.0625 2.1875 C8.0625 14.7275 8.0625 27.2675 8.0625 40.1875 C10.3925998 41.3525499 11.73497077 41.3084358 14.32861328 41.30102539 C15.20937531 41.30094986 16.09013733 41.30087433 16.99758911 41.30079651 C17.94971283 41.29563522 18.90183655 41.29047394 19.8828125 41.28515625 C20.85660858 41.2837413 21.83040466 41.28232635 22.83370972 41.28086853 C25.95167073 41.27525973 29.0695606 41.26270573 32.1875 41.25 C34.29817605 41.24498613 36.40885322 41.24042303 38.51953125 41.23632812 C43.70057047 41.22613725 48.88145535 41.20656353 54.0625 41.1875 C54.0625 27.6575 54.0625 14.1275 54.0625 0.1875 C59.6725 0.1875 65.2825 0.1875 71.0625 0.1875 C71.3925 34.8375 71.7225 69.4875 72.0625 105.1875 C68.52865441 106.36544853 65.65972447 106.32014317 61.9375 106.3125 C60.04644531 106.31636719 60.04644531 106.31636719 58.1171875 106.3203125 C55.0625 106.1875 55.0625 106.1875 54.0625 105.1875 C53.96945982 103.71395652 53.94503735 102.23599409 53.94897461 100.75952148 C53.94905014 99.81862167 53.94912567 98.87772186 53.94920349 97.90830994 C53.95436478 96.88540359 53.95952606 95.86249725 53.96484375 94.80859375 C53.9662587 93.76679459 53.96767365 92.72499542 53.96913147 91.65162659 C53.9747492 88.30938906 53.9873047 84.96721743 54 81.625 C54.00501272 79.36523534 54.00957602 77.10546963 54.01367188 74.84570312 C54.02387544 69.29292266 54.04344736 63.74028548 54.0625 58.1875 C38.8825 58.1875 23.7025 58.1875 8.0625 58.1875 C8.7225 58.5175 9.3825 58.8475 10.0625 59.1875 C10.0625 59.8475 10.0625 60.5075 10.0625 61.1875 C9.4025 61.1875 8.7425 61.1875 8.0625 61.1875 C8.0625 75.0475 8.0625 88.9075 8.0625 103.1875 C8.7225 103.1875 9.3825 103.1875 10.0625 103.1875 C9.7325 103.8475 9.4025 104.5075 9.0625 105.1875 C0.6475 105.6825 0.6475 105.6825 -7.9375 106.1875 C-9.08726406 103.88797187 -9.0632092 102.60031185 -9.06448364 100.04344177 C-9.06730347 99.17547974 -9.07012329 98.3075177 -9.07302856 97.41325378 C-9.07100433 96.45888931 -9.0689801 95.50452484 -9.06689453 94.52124023 C-9.06864685 93.51793671 -9.07039917 92.51463318 -9.07220459 91.48092651 C-9.07661888 88.15263152 -9.0736868 84.82438932 -9.0703125 81.49609375 C-9.07098561 79.19206227 -9.07195569 76.88803087 -9.07321167 74.58399963 C-9.07468803 69.75106125 -9.07253587 64.91814132 -9.06787109 60.08520508 C-9.06217066 53.87498985 -9.06545521 47.6648178 -9.07144356 41.45460415 C-9.07504812 36.69614839 -9.07391112 31.93770296 -9.07131577 27.1792469 C-9.07064637 24.88859108 -9.07147535 22.59793433 -9.07379532 20.30727959 C-9.07632047 17.11294934 -9.07248334 13.91869016 -9.06689453 10.72436523 C-9.06891876 9.76797653 -9.07094299 8.81158783 -9.07302856 7.82621765 C-9.07020874 6.96107544 -9.06738892 6.09593323 -9.06448364 5.20457458 C-9.06410662 4.4485366 -9.06372959 3.69249861 -9.06334114 2.91355038 C-8.73772026 -1.55269997 -3.40210681 0.00294046 0 0 Z " fill="#CA9B61" transform="translate(725.9375,591.8125)"/>
<path d="M0 0 C23.43 0 46.86 0 71 0 C69.51508007 3.71229983 68.03192692 6.90600693 66.09375 10.359375 C65.51979492 11.38409912 64.94583984 12.40882324 64.35449219 13.46459961 C63.43651855 15.0908728 63.43651855 15.0908728 62.5 16.75 C61.8699707 17.87092041 61.23994141 18.99184082 60.59082031 20.14672852 C56.65216873 27.13357572 52.64078401 34.07152254 48.54443359 40.96679688 C45.22412973 46.57176336 42.04764856 52.24938695 38.91162109 57.95922852 C36.56200156 62.22676317 34.16201004 66.45837415 31.703125 70.6640625 C30.87337158 72.08960449 30.87337158 72.08960449 30.02685547 73.54394531 C28.94445662 75.39902912 27.85517353 77.25011711 26.75830078 79.09667969 C26.2682959 79.93875977 25.77829102 80.78083984 25.2734375 81.6484375 C24.83435059 82.39270996 24.39526367 83.13698242 23.94287109 83.90380859 C22.72652366 86.2249122 22.72652366 86.2249122 23 90 C25.93782469 89.85924795 28.87515171 89.7126162 31.8125 89.5625 C32.64587891 89.52318359 33.47925781 89.48386719 34.33789062 89.44335938 C35.14033203 89.40146484 35.94277344 89.35957031 36.76953125 89.31640625 C37.50792236 89.27974854 38.24631348 89.24309082 39.00708008 89.20532227 C41.207495 89.05157859 41.207495 89.05157859 44 88 C46.53027066 88.16896632 49.01393491 88.51014521 51.52734375 88.84375 C53.95862339 88.99738536 55.69251934 88.72811455 58 88 C58 88.33 58 88.66 58 89 C59.62490954 89.02698189 61.24994633 89.04638757 62.875 89.0625 C63.77992188 89.07410156 64.68484375 89.08570313 65.6171875 89.09765625 C68.0168585 89.16249257 68.0168585 89.16249257 70 88 C71.20967877 91.62903632 70.91640143 94.25459219 70.625 98.0625 C70.53476562 99.31160156 70.44453125 100.56070313 70.3515625 101.84765625 C70 105 70 105 69 107 C68.34 106.67 67.68 106.34 67 106 C64.66150466 105.9077935 62.32028958 105.88250798 59.97998047 105.88647461 C59.25792419 105.88632858 58.53586792 105.88618256 57.79193115 105.8860321 C55.40031959 105.88672993 53.00878549 105.89451625 50.6171875 105.90234375 C48.96094811 105.90420839 47.30470816 105.90563208 45.64846802 105.90663147 C41.28532392 105.91045301 36.922213 105.92028022 32.55908203 105.93133545 C28.10840301 105.94155736 23.65771863 105.94613076 19.20703125 105.95117188 C10.47133892 105.9619028 1.73567359 105.97897488 -7 106 C-6.30319113 102.15195775 -5.31244944 99.43763774 -3.296875 96.0703125 C-2.45479492 94.64827515 -2.45479492 94.64827515 -1.59570312 93.19750977 C-0.68208008 91.67661743 -0.68208008 91.67661743 0.25 90.125 C1.53776937 87.94999445 2.8241967 85.77419383 4.109375 83.59765625 C4.76228516 82.49437988 5.41519531 81.39110352 6.08789062 80.25439453 C8.94712014 75.38800927 11.73055199 70.48039165 14.5 65.5625 C15.0244873 64.63219971 15.54897461 63.70189941 16.08935547 62.7434082 C18.96163164 57.64116633 21.82207699 52.5323424 24.6796875 47.421875 C25.29650391 46.31900146 25.91332031 45.21612793 26.54882812 44.07983398 C27.72329849 41.97850552 28.89657432 39.87650872 30.06835938 37.77368164 C33.96440639 30.79635249 37.97156617 23.90588657 42 17 C28.14 16.67 14.28 16.34 0 16 C0 10.72 0 5.44 0 0 Z M21 87 C22 89 22 89 22 89 Z " fill="#C7975D" transform="translate(225,592)"/>
<path d="M0 0 C18.81 0 37.62 0 57 0 C57 5.28 57 10.56 57 16 C43.47 16 29.94 16 16 16 C16.33 20.29 16.66 24.58 17 29 C17.05785618 31.43690232 17.08928508 33.87505814 17.0625 36.3125 C17.05347656 37.40175781 17.04445313 38.49101563 17.03515625 39.61328125 C17.02355469 40.40089844 17.01195312 41.18851563 17 42 C20.93289545 41.88162872 24.86555666 41.75737207 28.7980957 41.62768555 C30.79303319 41.56312994 32.78811929 41.5032217 34.78320312 41.44335938 C36.66362305 41.38051758 36.66362305 41.38051758 38.58203125 41.31640625 C39.73936768 41.27974854 40.8967041 41.24309082 42.08911133 41.20532227 C45.0643446 41.11671491 45.0643446 41.11671491 48 40 C49.32 40.66 50.64 41.32 52 42 C52 46.95 52 51.9 52 57 C48.10125347 57.97468663 44.83308289 58.20150992 40.828125 58.31640625 C40.1457074 58.33718735 39.46328979 58.35796844 38.76019287 58.37937927 C36.59022644 58.44452052 34.42014376 58.50359404 32.25 58.5625 C30.77472779 58.60571897 29.29946713 58.64933432 27.82421875 58.69335938 C24.21626301 58.80090811 20.60821322 58.90024352 17 59 C17 68.9 17 78.8 17 89 C18.485 89.495 18.485 89.495 20 90 C20 89.34 20 88.68 20 88 C20.66 88.33 21.32 88.66 22 89 C24.47832659 89.15626576 26.93311331 89.25813198 29.4140625 89.31640625 C30.14370209 89.33718735 30.87334167 89.35796844 31.62509155 89.37937927 C33.95829763 89.44481917 36.29161721 89.50373368 38.625 89.5625 C40.20574095 89.60569053 41.78647039 89.64930499 43.3671875 89.69335938 C47.24467504 89.80049481 51.12227685 89.90177782 55 90 C55.33 89.34 55.66 88.68 56 88 C58 90 58 90 58.1953125 93.4765625 C58.18201493 94.85950968 58.15816232 96.24238654 58.125 97.625 C58.11597656 98.33140625 58.10695313 99.0378125 58.09765625 99.765625 C58.07407603 101.51056098 58.03820461 103.25532295 58 105 C25.24799518 106.09086312 25.24799518 106.09086312 10.5 106.1875 C9.07965454 106.20683594 9.07965454 106.20683594 7.63061523 106.2265625 C6.77282471 106.22785156 5.91503418 106.22914063 5.03125 106.23046875 C4.29455078 106.23457764 3.55785156 106.23868652 2.79882812 106.24291992 C1 106 1 106 -1 104 C-1.23047829 102.1296978 -1.23047829 102.1296978 -1.20254517 99.81124878 C-1.19688034 98.93342743 -1.19121552 98.05560608 -1.18537903 97.15118408 C-1.16883774 96.18589783 -1.15229645 95.22061157 -1.13525391 94.22607422 C-1.12579239 93.21141083 -1.11633087 92.19674744 -1.10658264 91.15133667 C-1.07280912 87.78560738 -1.02471991 84.42023924 -0.9765625 81.0546875 C-0.95040528 78.72584995 -0.92513748 76.39700226 -0.90072632 74.06814575 C-0.83397845 67.92937411 -0.75510659 61.79081502 -0.67376709 55.65222168 C-0.57873855 48.29185104 -0.49866625 40.93130456 -0.41610718 33.57078552 C-0.28890506 22.38034628 -0.14262527 11.19030121 0 0 Z " fill="#CA9A60" transform="translate(321,592)"/>
<path d="M0 0 C0.33 0 0.66 0 1 0 C1.96417062 27.73103045 -2.88465559 52.53340957 -21.4453125 74.28125 C-41.57094884 95.6993584 -69.10267905 105.46787054 -96.5390625 113.95703125 C-108.91492985 117.6306426 -108.91492985 117.6306426 -120 124 C-120.33 123.34 -120.66 122.68 -121 122 C-112.47911396 103.17062945 -97.29062914 93.87051457 -79.5546875 85.23046875 C-61.58021779 76.46983684 -45.61103179 67.80742504 -31 54 C-30.2884375 53.34128906 -29.576875 52.68257813 -28.84375 52.00390625 C-15.49475078 39.24534353 -6.69105861 21.589209 -1.83984375 3.9296875 C-1 1 -1 1 0 0 Z " fill="#C7975D" transform="translate(687,291)"/>
<path d="M0 0 C2.64867421 2.64867421 3.13988396 5.55455622 4.125 9.0625 C7.92666437 21.79422897 13.24181172 33.55458977 21.53125 43.99609375 C23 46 23 46 23 48 C23.66 48 24.32 48 25 48 C26.375 49.43359375 26.375 49.43359375 28 51.4375 C39.63353643 65.00597781 54.07663338 73.36774183 69.94580078 81.00732422 C75.39923506 83.64265388 80.81040014 86.36499421 86.21484375 89.09912109 C87.82726353 89.91282856 89.44460127 90.71677283 91.0625 91.51953125 C104.95838339 98.68459612 116.53064116 109.10319369 122 124 C119.1624163 123.38616086 116.85960849 122.50281148 114.31054688 121.12426758 C110.0088783 118.92136895 105.64055251 117.43401053 101.03125 116.01171875 C99.30726619 115.46427294 97.58330872 114.91674416 95.859375 114.36914062 C93.1929027 113.53087692 90.52556444 112.69548062 87.85742188 111.86254883 C66.43810551 105.15406041 45.89082685 97.27626251 29 82 C28.0615625 81.15566406 27.123125 80.31132812 26.15625 79.44140625 C9.23006905 63.42198499 0.85874936 41.10035792 0 18 C-0.09213135 11.99961651 -0.05941121 6.00053184 0 0 Z " fill="#C8985E" transform="translate(335,290)"/>
<path d="M0 0 C15.87684627 -1.34803412 15.87684627 -1.34803412 20.21484375 1.40625 C21.83397776 3.84668387 22.88451383 6.28898873 24 9 C25.0022703 10.9681232 26.04770059 12.90987661 27.09570312 14.85400391 C28.26448611 17.02693166 29.40378232 19.21378028 30.54296875 21.40234375 C34.42204626 28.75692277 38.72583378 35.8704409 43 43 C43.33620361 42.40276123 43.67240723 41.80552246 44.01879883 41.19018555 C50.05289303 30.47713322 56.099898 19.77199529 62.25 9.125 C62.71510986 8.31764404 63.18021973 7.51028809 63.65942383 6.6784668 C64.08634521 5.94152588 64.5132666 5.20458496 64.953125 4.4453125 C65.32598633 3.80094238 65.69884766 3.15657227 66.08300781 2.49267578 C67 1 67 1 68 0 C69.34267413 -0.08631874 70.68974322 -0.10706473 72.03515625 -0.09765625 C72.84404297 -0.09443359 73.65292969 -0.09121094 74.48632812 -0.08789062 C75.33646484 -0.07951172 76.18660156 -0.07113281 77.0625 -0.0625 C77.91650391 -0.05798828 78.77050781 -0.05347656 79.65039062 -0.04882812 C81.76695663 -0.03700373 83.88348685 -0.01906769 86 0 C84.6463303 4.59971438 82.77313668 8.30573069 80.25 12.375 C79.44241387 13.69303351 78.63654863 15.01212236 77.83203125 16.33203125 C77.38553223 17.06373535 76.9390332 17.79543945 76.47900391 18.54931641 C71.20100517 27.29486796 66.12620555 36.16494415 61 45 C60.31067383 46.18625977 60.31067383 46.18625977 59.60742188 47.39648438 C58.46403512 49.36654512 57.32462489 51.33882013 56.1875 53.3125 C55.58292969 54.36050781 54.97835937 55.40851562 54.35546875 56.48828125 C52.53372995 59.86401049 51.87227323 62.50783242 51.79467773 66.2878418 C51.77473251 67.14850754 51.75478729 68.00917328 51.73423767 68.8959198 C51.71752518 69.82100845 51.70081268 70.74609711 51.68359375 71.69921875 C51.66281265 72.64940384 51.64203156 73.59958893 51.62062073 74.5785675 C51.55521948 77.61480456 51.49628396 80.65112831 51.4375 83.6875 C51.39430583 85.74545169 51.35069124 87.80339459 51.30664062 89.86132812 C51.19954769 94.90746316 51.09825354 99.95368543 51 105 C45.39 105 39.78 105 34 105 C34.0628418 103.06519775 34.0628418 103.06519775 34.12695312 101.09130859 C34.27326776 96.24232526 34.36413384 91.39353076 34.43945312 86.54296875 C34.47934507 84.45571945 34.5336814 82.36868869 34.60351562 80.28222656 C35.05742917 66.35776107 34.30394315 57.40156791 26 46 C25.00809802 44.32469122 24.03676239 42.63690132 23.09375 40.93359375 C18.92617917 33.69715402 14.74424111 26.46721481 10.4375 19.3125 C9.81746094 18.27738281 9.19742188 17.24226562 8.55859375 16.17578125 C8.04425781 15.45777344 7.52992188 14.73976563 7 14 C6.34 14 5.68 14 5 14 C4.87625 12.9790625 4.87625 12.9790625 4.75 11.9375 C4.07208032 9.28231457 3.31087552 7.63219434 1.9375 5.3125 C0 2 0 2 0 0 Z " fill="#C7975C" transform="translate(518,592)"/>
<path d="M0 0 C24.75 0 49.5 0 75 0 C75 5.28 75 10.56 75 16 C65.1 16 55.2 16 45 16 C45.03552979 18.66054443 45.07105957 21.32108887 45.10766602 24.06225586 C45.22403693 32.83128529 45.33487822 41.60037824 45.4429636 50.36951351 C45.50869721 55.68868273 45.57632064 61.00781421 45.64819336 66.3269043 C45.71742491 71.45558991 45.78178337 76.58431521 45.84269524 81.71310616 C45.86685856 83.67443646 45.89280822 85.63574556 45.92053413 87.59702873 C45.95892843 90.33410191 45.99109521 93.07118016 46.02172852 95.80834961 C46.03467453 96.62761932 46.04762054 97.44688904 46.06095886 98.29098511 C46.07901761 100.19401287 46.04523572 102.09742424 46 104 C45.67 104.33 45.34 104.66 45 105 C39.72 105 34.44 105 29 105 C29 75.63 29 46.26 29 16 C19.43 16 9.86 16 0 16 C0 10.72 0 5.44 0 0 Z " fill="#C6965C" transform="translate(619,592)"/>
<path d="M0 0 C0.66 0 1.32 0 2 0 C-1.52360192 12.22897138 -7.74353953 22.39867277 -16 32 C-16.49113281 32.62390625 -16.98226562 33.2478125 -17.48828125 33.890625 C-27.9358255 46.95741274 -45.3576993 56.95738362 -62 59 C-67.59953075 59.37258896 -73.20224391 59.54714464 -78.8137207 59.58569336 C-85.29126126 59.6719566 -90.08501329 60.3311254 -96 63 C-97.485 63.495 -97.485 63.495 -99 64 C-98.64807613 57.13748456 -95.02559991 51.80859992 -90.09375 47.23046875 C-82.6570945 41.75009763 -73.74717674 40.04798372 -64.8828125 38.078125 C-39.18738515 32.35617106 -19.06148211 21.65951448 -1 2 C-0.67 1.34 -0.34 0.68 0 0 Z " fill="#C8985E" transform="translate(665,383)"/>
<path d="M0 0 C2.58008318 2.50636652 4.92126767 4.8981111 7.125 7.75 C24.70028019 29.10314415 52.90204385 37.31381965 79 42 C80.66602317 42.0463097 82.33453923 42.06338924 84 42 C84.33 42.99 84.66 43.98 85 45 C86.89393562 46.39401379 86.89393562 46.39401379 89.1875 47.6875 C94.76836452 51.26566194 98.98837396 55.53156787 100.875 62 C100.91625 62.66 100.9575 63.32 101 64 C98.39662108 63.55370647 96.15327795 63.07066193 93.74609375 61.9609375 C90.39956651 60.78989098 87.78970159 60.8763423 84.25 61 C62.4489708 61.38014 43.97113451 56.17404012 27 42 C26.01773437 41.23623047 26.01773437 41.23623047 25.015625 40.45703125 C16.04959095 33.19454367 9.59411731 23.77993507 4.4375 13.5625 C4.10298828 12.90064697 3.76847656 12.23879395 3.42382812 11.55688477 C1.57809919 7.7211686 0.47715418 4.22902406 0 0 Z " fill="#C7985E" transform="translate(356,382)"/>
<path d="M0 0 C5.88395112 5.64231042 9.22530876 13.57807883 9.6875 21.6953125 C9.42852956 30.98587719 6.42521711 39.13728289 -0.23046875 45.79296875 C-6.62125095 50.95916993 -13.88912453 53.59260162 -22.12890625 53.20703125 C-31.31086725 52.10519593 -37.22681919 47.77126932 -43.375 40.9375 C-48.62160094 33.06759858 -49.57053069 24.43290297 -47.87890625 15.2421875 C-45.4994277 6.4502159 -41.52004738 0.98570227 -33.7734375 -3.83984375 C-22.58450458 -9.54364832 -9.78045108 -7.69124319 0 0 Z M-34.71875 9.72265625 C-38.63795342 16.31531629 -39.38043637 22.68893768 -37.94921875 30.16015625 C-36.25617978 35.55087542 -33.27124365 39.11733715 -28.375 41.9375 C-22.55382772 44.1986165 -17.32680204 44.49753562 -11.48828125 42.1953125 C-6.76474603 39.38389227 -3.10909174 35.13977521 -1.375 29.9375 C-0.72574297 22.63799598 -0.11818274 15.60522353 -4.7734375 9.55859375 C-9.32036929 4.95621157 -13.31502241 2.65776198 -19.875 2.3125 C-26.11361649 2.63265092 -30.90631667 4.6578829 -34.71875 9.72265625 Z " fill="#C7975C" transform="translate(693.375,737.0625)"/>
<path d="M0 0 C26.88145645 0.05921026 26.88145645 0.05921026 36.046875 8.2578125 C42.39201714 15.11114681 44.00320713 22.78673559 43.6796875 31.953125 C42.7223498 39.90488919 39.37435847 46.84497885 33.296875 52.1328125 C22.83914705 59.46471408 9.45121486 58.38929329 -2.703125 58.1328125 C-3.49824041 54.62984547 -3.82938036 51.39683679 -3.83251953 47.80761719 C-3.83567169 46.77014343 -3.83882385 45.73266968 -3.84207153 44.66375732 C-3.8400473 43.55526428 -3.83802307 42.44677124 -3.8359375 41.3046875 C-3.83689423 40.15993958 -3.83785095 39.01519165 -3.83883667 37.83575439 C-3.83951614 35.42175237 -3.83767813 33.0077485 -3.83349609 30.59375 C-3.82812494 26.88277129 -3.83345907 23.17191254 -3.83984375 19.4609375 C-3.83918331 17.11718723 -3.83790287 14.77343704 -3.8359375 12.4296875 C-3.83796173 11.31309753 -3.83998596 10.19650757 -3.84207153 9.04608154 C-3.83891937 8.02121643 -3.83576721 6.99635132 -3.83251953 5.94042969 C-3.83172394 5.03395691 -3.83092834 4.12748413 -3.83010864 3.19354248 C-3.63489987 0.02563395 -3.20521014 0.15748142 0 0 Z M6.296875 10.1328125 C6.296875 22.6728125 6.296875 35.2128125 6.296875 48.1328125 C16.32047574 49.27580488 16.32047574 49.27580488 25.296875 46.1328125 C29.56624956 42.63808735 32.1658253 38.56185106 33.296875 33.1328125 C33.83845594 27.3920545 32.95986257 22.24537749 30.296875 17.1328125 C27.35444673 13.8008429 24.52258423 11.54138224 20.296875 10.1328125 C15.676875 10.1328125 11.056875 10.1328125 6.296875 10.1328125 Z " fill="#C9995E" transform="translate(532.703125,730.8671875)"/>
<path d="M0 0 C0.33 0 0.66 0 1 0 C3.27337299 44.02920338 3.27337299 44.02920338 -2.40234375 52.3359375 C-6.96896418 57.09236856 -12.54682901 60.1089592 -19.1875 60.25 C-26.85683897 60.13794797 -32.66954785 57.45441616 -38 52 C-43.90643496 42.42750196 -42.0852349 28.78323524 -42.125 17.9375 C-42.12975342 16.84260254 -42.13450684 15.74770508 -42.1394043 14.61962891 C-42.137229 13.5785498 -42.13505371 12.5374707 -42.1328125 11.46484375 C-42.13168457 10.532771 -42.13055664 9.60069824 -42.12939453 8.64038086 C-42.00006397 6.00130539 -41.58611393 3.5729063 -41 1 C-38.03 1 -35.06 1 -32 1 C-31.02768705 4.88925179 -30.91369302 7.83566765 -30.97265625 11.8203125 C-30.98531654 13.17447648 -30.99767644 14.5286433 -31.00976562 15.8828125 C-31.03440592 17.99553503 -31.06223036 20.10810528 -31.09594727 22.22070312 C-31.66163165 34.35097605 -31.66163165 34.35097605 -29 46 C-26.12346385 48.58029964 -24.36608223 49.39856005 -20.5 49.3125 C-19.37078125 49.30669922 -19.37078125 49.30669922 -18.21875 49.30078125 C-15.69057491 48.95805329 -14.12406778 48.41754524 -12 47 C-10.30347923 44.19138861 -9.74154581 42.04347391 -9.68115234 38.78222656 C-9.66128265 37.96167786 -9.64141296 37.14112915 -9.62094116 36.29571533 C-9.60361435 34.98144562 -9.60361435 34.98144562 -9.5859375 33.640625 C-9.56657135 32.73624695 -9.5472052 31.8318689 -9.5272522 30.90008545 C-9.46756169 28.01681901 -9.42111314 25.13351242 -9.375 22.25 C-9.33681053 20.29295152 -9.29775823 18.33591967 -9.2578125 16.37890625 C-9.16186875 11.58607289 -9.07779873 6.79316085 -9 2 C-6.06193103 1.02064368 -4.04722362 1 -1 1 C-0.67 0.67 -0.34 0.34 0 0 Z " fill="#C8985D" transform="translate(495,730)"/>
<path d="M0 0 C0.639375 0.495 1.27875 0.99 1.9375 1.5 C3 3 3 3 3 4.9375 C1.61181046 7.80064093 -0.44850168 9.16815505 -3 11 C-3.78375 10.360625 -4.5675 9.72125 -5.375 9.0625 C-8.56297394 6.55766333 -10.04311017 5.86045261 -14 5.875 C-14.70125 5.87242187 -15.4025 5.86984375 -16.125 5.8671875 C-18.09153775 5.88622764 -18.09153775 5.88622764 -20 7 C-20.40729228 9.32156597 -20.74438677 11.6568787 -21 14 C-17.28110767 16.8142969 -13.86430612 18.49249305 -9.4375 20 C-3.25356721 22.18700062 0.31642107 24.25571055 3.375 30.1875 C5.32856922 35.04351492 5.54682399 38.99341583 4 44 C1.965791 48.58375095 -0.78178355 51.20339178 -5.25 53.4375 C-11.96810818 56.02224477 -18.35754393 55.88764276 -25.00390625 53.1328125 C-28.79074664 50.983725 -31.89004466 48.0189726 -35 45 C-32.42215154 42.35247996 -30.08351902 40.05567935 -27 38 C-26.773125 38.61875 -26.54625 39.2375 -26.3125 39.875 C-24.53866167 42.74692872 -23.2354754 43.08562652 -20 44 C-15.10696923 45.04001666 -11.57967465 45.43295216 -7 43 C-5.88881768 37.41787586 -5.88881768 37.41787586 -7 32 C-8.74503316 31.03493557 -8.74503316 31.03493557 -10.9375 30.5625 C-18.88822839 28.22554469 -26.81582915 25.15532423 -31.3125 17.875 C-32.59333386 12.51878568 -32.43140639 7.49461865 -29.6484375 2.64453125 C-26.40936184 -1.41540605 -23.37572383 -4.04866975 -18.17578125 -4.88671875 C-11.03051644 -5.25873433 -5.68325828 -4.71294589 0 0 Z " fill="#C7975C" transform="translate(356,735)"/>
<path d="M0 0 C1.64510941 0.00015915 3.29022379 0.00585551 4.93530273 0.01586914 C6.23164894 0.01799156 6.23164894 0.01799156 7.55418396 0.02015686 C10.32578941 0.025773 13.09731528 0.0383282 15.86889648 0.05102539 C17.74324428 0.05603831 19.61759334 0.06060158 21.49194336 0.06469727 C26.09679192 0.07574767 30.70158069 0.09302309 35.30639648 0.11352539 C36.11328054 4.05829186 36.30640077 6.11350824 35.30639648 10.11352539 C30.35639648 10.11352539 25.40639648 10.11352539 20.30639648 10.11352539 C20.31425171 12.24132446 20.31425171 12.24132446 20.32226562 14.41210938 C20.34030957 19.65445326 20.35182627 24.89679439 20.36132812 30.13916016 C20.36636974 32.4119513 20.37320286 34.68473919 20.38183594 36.95751953 C20.39390909 40.2165609 20.39962636 43.47555956 20.40405273 46.73461914 C20.40921402 47.75752548 20.41437531 48.78043182 20.41969299 49.83433533 C20.41980629 51.24568504 20.41980629 51.24568504 20.41992188 52.68554688 C20.42214249 53.51827621 20.4243631 54.35100555 20.426651 55.20896912 C20.30639648 57.11352539 20.30639648 57.11352539 19.30639648 58.11352539 C17.80901524 58.21143109 16.30696756 58.24327403 14.80639648 58.23852539 C13.99170898 58.24110352 13.17702148 58.24368164 12.33764648 58.24633789 C10.30639648 58.11352539 10.30639648 58.11352539 9.30639648 57.11352539 C9.2133563 55.63998191 9.18893383 54.16201948 9.19287109 52.68554688 C9.19294662 51.74464706 9.19302216 50.80374725 9.19309998 49.83433533 C9.19826126 48.81142899 9.20342255 47.78852264 9.20874023 46.73461914 C9.21015518 45.69281998 9.21157013 44.65102081 9.21302795 43.57765198 C9.21864569 40.23541445 9.23120118 36.89324282 9.24389648 33.55102539 C9.2489092 31.29126073 9.2534725 29.03149502 9.25756836 26.77172852 C9.26862088 21.21896857 9.28589739 15.66625817 9.30639648 10.11352539 C4.68639648 10.11352539 0.06639648 10.11352539 -4.69360352 10.11352539 C-4.79125977 3.17993164 -4.79125977 3.17993164 -4.69360352 1.11352539 C-3.69360352 0.11352539 -3.69360352 0.11352539 0 0 Z " fill="#CD9E63" transform="translate(390.693603515625,730.886474609375)"/>
<path d="M0 0 C1.91015625 0.23046875 1.91015625 0.23046875 3.91015625 2.23046875 C4.15066528 4.55899048 4.15066528 4.55899048 4.13720703 7.50634766 C4.13698044 9.1578331 4.13698044 9.1578331 4.13674927 10.84268188 C4.1264267 12.03541718 4.11610413 13.22815247 4.10546875 14.45703125 C4.10263885 15.67498383 4.09980896 16.8929364 4.09689331 18.14779663 C4.08566881 22.05045258 4.06055997 25.95288178 4.03515625 29.85546875 C4.02512939 32.49609044 4.01600303 35.13671572 4.0078125 37.77734375 C3.98572206 44.26179655 3.95222217 50.74611645 3.91015625 57.23046875 C3.25015625 57.23046875 2.59015625 57.23046875 1.91015625 57.23046875 C1.91015625 58.22046875 1.91015625 59.21046875 1.91015625 60.23046875 C-1.82472152 59.73248505 -3.9022201 59.35555119 -7.08984375 57.23046875 C-7.45733643 54.87071228 -7.45733643 54.87071228 -7.44628906 51.87866211 C-7.44929016 50.76087875 -7.45229126 49.6430954 -7.4553833 48.49143982 C-7.4430365 47.2799678 -7.4306897 46.06849579 -7.41796875 44.8203125 C-7.41609558 43.58253555 -7.41422241 42.34475861 -7.41229248 41.06947327 C-7.40383269 37.77678353 -7.38182731 34.48452786 -7.35412598 31.19195557 C-7.33045157 27.83696882 -7.3291397 24.48201852 -7.32421875 21.12695312 C-7.31504904 18.58723478 -7.30467338 16.04752043 -7.29296875 13.5078125 C-7.28871887 12.29431625 -7.28446899 11.08082001 -7.28009033 9.83055115 C-7.27048279 8.71591995 -7.26087524 7.60128876 -7.25097656 6.45288086 C-7.24414856 5.4662999 -7.23732056 4.47971893 -7.23028564 3.46324158 C-6.94252905 -1.11156927 -3.92643601 0.0783862 0 0 Z " fill="#CEA064" transform="translate(612.08984375,730.76953125)"/>
<path d="M0 0 C5.61 0 11.22 0 17 0 C17.33 34.65 17.66 69.3 18 105 C14.46615441 106.17794853 11.59722447 106.13264317 7.875 106.125 C5.98394531 106.12886719 5.98394531 106.12886719 4.0546875 106.1328125 C1 106 1 106 0 105 C-0.1005914 102.99291687 -0.13081899 100.98225754 -0.1328125 98.97265625 C-0.13474609 97.0690332 -0.13474609 97.0690332 -0.13671875 95.12695312 C-0.13462402 94.45672119 -0.1325293 93.78648926 -0.13037109 93.09594727 C-0.12517757 91.12972577 -0.1307575 89.16348494 -0.13671875 87.19726562 C-0.12660325 77.06658838 0.43594509 67.15298829 1 57 C-13.85 57 -28.7 57 -44 57 C-44 56.67 -44 56.34 -44 56 C-28.82 56 -13.64 56 2 56 C2 71.84 2 87.68 2 104 C6.62 104 11.24 104 16 104 C15.83734146 102.87859619 15.67468292 101.75719238 15.50709534 100.60180664 C14.91612279 95.84617616 14.86645256 91.15796251 14.88647461 86.37109375 C14.88632858 85.44333633 14.88618256 84.51557892 14.8860321 83.55970764 C14.88672407 80.51894727 14.8944827 77.47824956 14.90234375 74.4375 C14.90421048 72.31901076 14.90563318 70.20052108 14.90663147 68.08203125 C14.91043659 62.52543939 14.92024965 56.96887395 14.93133545 51.41229248 C14.94159279 45.73450071 14.94613833 40.05670463 14.95117188 34.37890625 C14.96187381 23.2525926 14.97892602 12.1262985 15 1 C10.71 1 6.42 1 2 1 C2 14.2 2 27.4 2 41 C1.01 40.505 1.01 40.505 0 40 C0 26.8 0 13.6 0 0 Z " fill="#B7874F" transform="translate(780,592)"/>
<path d="M0 0 C3.88155659 1.94077829 6.08435628 3.95380507 9 7 C10.60146833 8.60686048 12.205817 10.21085362 13.8125 11.8125 C15.90625 13.90625 15.90625 13.90625 18 16 C17.67 16.66 17.34 17.32 17 18 C12.38 13.38 7.76 8.76 3 4 C2.67 37.99 2.34 71.98 2 107 C6.29 107 10.58 107 15 107 C15 83.9 15 60.8 15 37 C18.58809762 38.79404881 20.43275741 40.16208392 23.1875 42.9375 C23.88230469 43.62714844 24.57710938 44.31679688 25.29296875 45.02734375 C27 47 27 47 28 50 C27.34 50 26.68 50 26 50 C24.30859375 48.28515625 24.30859375 48.28515625 22.4375 46.0625 C21.81746094 45.33160156 21.19742187 44.60070312 20.55859375 43.84765625 C20.04425781 43.23792969 19.52992188 42.62820313 19 42 C18.505 41.505 18.505 41.505 18 41 C16.72172783 47.83548496 16.89151283 54.62039168 16.9375 61.5546875 C16.94328386 63.53622976 16.94906237 65.51777206 16.95451355 67.49931526 C16.96540596 70.95789671 16.98293162 74.41644443 17 77.875 C17.02037275 82.02612797 17.03956871 86.1772363 17.05102539 90.32839966 C17.05859191 92.90920764 17.07069579 95.49000686 17.08764648 98.07077026 C17.09260132 99.80860275 17.09260132 99.80860275 17.09765625 101.58154297 C17.10551147 103.11873489 17.10551147 103.11873489 17.11352539 104.6869812 C17 107 17 107 16 108 C10.72 108 5.44 108 0 108 C0 72.36 0 36.72 0 0 Z " fill="#BC884D" transform="translate(408,589)"/>
<path d="M0 0 C18.81 0 37.62 0 57 0 C57 5.28 57 10.56 57 16 C43.47 16 29.94 16 16 16 C16 15.67 16 15.34 16 15 C28.87 15 41.74 15 55 15 C55 10.38 55 5.76 55 1 C37.18 1 19.36 1 1 1 C1 34.99 1 68.98 1 104 C19.15 104 37.3 104 56 104 C56 99.71 56 95.42 56 91 C48.08 91 40.16 91 32 91 C32 90.67 32 90.34 32 90 C39.59 90 47.18 90 55 90 C55.33 89.34 55.66 88.68 56 88 C58 90 58 90 58.1953125 93.4765625 C58.18201493 94.85950968 58.15816232 96.24238654 58.125 97.625 C58.11597656 98.33140625 58.10695313 99.0378125 58.09765625 99.765625 C58.07407603 101.51056098 58.03820461 103.25532295 58 105 C25.24799518 106.09086312 25.24799518 106.09086312 10.5 106.1875 C9.07965454 106.20683594 9.07965454 106.20683594 7.63061523 106.2265625 C6.77282471 106.22785156 5.91503418 106.22914063 5.03125 106.23046875 C4.29455078 106.23457764 3.55785156 106.23868652 2.79882812 106.24291992 C1 106 1 106 -1 104 C-1.23047829 102.1296978 -1.23047829 102.1296978 -1.20254517 99.81124878 C-1.19688034 98.93342743 -1.19121552 98.05560608 -1.18537903 97.15118408 C-1.16883774 96.18589783 -1.15229645 95.22061157 -1.13525391 94.22607422 C-1.12579239 93.21141083 -1.11633087 92.19674744 -1.10658264 91.15133667 C-1.07280912 87.78560738 -1.02471991 84.42023924 -0.9765625 81.0546875 C-0.95040528 78.72584995 -0.92513748 76.39700226 -0.90072632 74.06814575 C-0.83397845 67.92937411 -0.75510659 61.79081502 -0.67376709 55.65222168 C-0.57873855 48.29185104 -0.49866625 40.93130456 -0.41610718 33.57078552 C-0.28890506 22.38034628 -0.14262527 11.19030121 0 0 Z " fill="#B58248" transform="translate(321,592)"/>
<path d="M0 0 C0.33 0 0.66 0 1 0 C1.02336551 21.9139661 1.04099714 43.82793014 1.05181217 65.74190617 C1.05696736 75.91705301 1.06399528 86.09219211 1.07543945 96.26733398 C1.08541001 105.13649308 1.09185909 114.00564657 1.09408849 122.87481111 C1.09539156 127.57047402 1.09845194 132.26612088 1.10573006 136.96177864 C1.11252766 141.38332582 1.11460934 145.80485038 1.11310768 150.22640228 C1.11338233 151.84730846 1.11536523 153.4682154 1.11920547 155.08911705 C1.12420117 157.30688053 1.1229767 159.52455927 1.12025452 161.74232483 C1.12163721 163.60204217 1.12163721 163.60204217 1.12304783 165.49932957 C0.99777586 169.06327611 0.56875568 172.48180587 0 176 C-0.66 176 -1.32 176 -2 176 C-2.04680114 154.82431485 -2.08202853 133.64863828 -2.10362434 112.47291183 C-2.1139199 102.6398012 -2.12794722 92.80672277 -2.15087891 82.97363281 C-2.17086558 74.39924384 -2.18372893 65.82487821 -2.18817699 57.25046659 C-2.19077545 52.71391233 -2.19684686 48.17742481 -2.21146011 43.64089203 C-2.22512755 39.36294635 -2.22920429 35.08509434 -2.22621536 30.80712891 C-2.22676145 29.2447585 -2.23068396 27.68238466 -2.23841095 26.12003326 C-2.28017959 17.23180794 -1.83029664 8.72642616 0 0 Z " fill="#BF8C52" transform="translate(522,353)"/>
<path d="M0 0 C1.64510941 0.00015915 3.29022379 0.00585551 4.93530273 0.01586914 C6.23164894 0.01799156 6.23164894 0.01799156 7.55418396 0.02015686 C10.32578941 0.025773 13.09731528 0.0383282 15.86889648 0.05102539 C17.74324428 0.05603831 19.61759334 0.06060158 21.49194336 0.06469727 C26.09679192 0.07574767 30.70158069 0.09302309 35.30639648 0.11352539 C36.11328054 4.05829186 36.30640077 6.11350824 35.30639648 10.11352539 C30.35639648 10.11352539 25.40639648 10.11352539 20.30639648 10.11352539 C20.31425171 12.24132446 20.31425171 12.24132446 20.32226562 14.41210938 C20.34030957 19.65445326 20.35182627 24.89679439 20.36132812 30.13916016 C20.36636974 32.4119513 20.37320286 34.68473919 20.38183594 36.95751953 C20.39390909 40.2165609 20.39962636 43.47555956 20.40405273 46.73461914 C20.40921402 47.75752548 20.41437531 48.78043182 20.41969299 49.83433533 C20.41980629 51.24568504 20.41980629 51.24568504 20.41992188 52.68554688 C20.42214249 53.51827621 20.4243631 54.35100555 20.426651 55.20896912 C20.30639648 57.11352539 20.30639648 57.11352539 19.30639648 58.11352539 C17.80901524 58.21143109 16.30696756 58.24327403 14.80639648 58.23852539 C13.99170898 58.24110352 13.17702148 58.24368164 12.33764648 58.24633789 C10.30639648 58.11352539 10.30639648 58.11352539 9.30639648 57.11352539 C9.2133563 55.63998191 9.18893383 54.16201948 9.19287109 52.68554688 C9.19294662 51.74464706 9.19302216 50.80374725 9.19309998 49.83433533 C9.19826126 48.81142899 9.20342255 47.78852264 9.20874023 46.73461914 C9.21015518 45.69281998 9.21157013 44.65102081 9.21302795 43.57765198 C9.21864569 40.23541445 9.23120118 36.89324282 9.24389648 33.55102539 C9.2489092 31.29126073 9.2534725 29.03149502 9.25756836 26.77172852 C9.26862088 21.21896857 9.28589739 15.66625817 9.30639648 10.11352539 C4.68639648 10.11352539 0.06639648 10.11352539 -4.69360352 10.11352539 C-4.79125977 3.17993164 -4.79125977 3.17993164 -4.69360352 1.11352539 C-3.69360352 0.11352539 -3.69360352 0.11352539 0 0 Z M-3.69360352 2.11352539 C-3.69360352 4.09352539 -3.69360352 6.07352539 -3.69360352 8.11352539 C1.25639648 8.44352539 6.20639648 8.77352539 11.30639648 9.11352539 C11.30639648 24.62352539 11.30639648 40.13352539 11.30639648 56.11352539 C13.61639648 56.11352539 15.92639648 56.11352539 18.30639648 56.11352539 C18.30639648 40.60352539 18.30639648 25.09352539 18.30639648 9.11352539 C26.22639648 8.61852539 26.22639648 8.61852539 34.30639648 8.11352539 C34.30639648 6.13352539 34.30639648 4.15352539 34.30639648 2.11352539 C21.76639648 2.11352539 9.22639648 2.11352539 -3.69360352 2.11352539 Z " fill="#B48249" transform="translate(390.693603515625,730.886474609375)"/>
<path d="M0 0 C3.40836148 5.11254221 3.12502887 10.83871601 3.12025452 16.84007263 C3.12153615 17.816846 3.12153615 17.816846 3.12284368 18.81335217 C3.12447863 20.97512493 3.11900995 23.13681848 3.11352539 25.29858398 C3.11324306 26.85624693 3.11340214 28.41391001 3.1139679 29.97157288 C3.11425409 34.18591173 3.10838607 38.40022195 3.10139394 42.61455417 C3.09513083 47.02412695 3.09455426 51.43370043 3.09336853 55.84327698 C3.09026393 64.18705206 3.08206229 72.530814 3.07201904 80.8745833 C3.06083085 90.37637683 3.05534063 99.878171 3.05032361 109.37996948 C3.03987894 128.9199871 3.02229638 148.45999249 3 168 C2.67 168 2.34 168 2 168 C0.5176474 160.68088403 -0.58631177 154.03089339 0.5 146.5625 C1.56689804 139.62131385 1.56689804 139.62131385 0 133 C0.66 133 1.32 133 2 133 C1.835 131.7625 1.67 130.525 1.5 129.25 C0.94007815 124.35068379 0.96068578 119.52682556 1.0625 114.6015625 C1.12449583 111.88456759 1.12449583 111.88456759 0 109 C0.33333333 107.33333333 0.66666667 105.66666667 1 104 C0.67 103.01 0.34 102.02 0 101 C0.165 100.236875 0.33 99.47375 0.5 98.6875 C1.08549549 95.54046172 0.55618699 93.12855183 0 90 C0.495 89.01 0.495 89.01 1 88 C0.67 87.01 0.34 86.02 0 85 C0.33333333 83.33333333 0.66666667 81.66666667 1 80 C0.67 79.01 0.34 78.02 0 77 C0.12004802 74.36494605 0.29479214 71.75353621 0.5 69.125 C1.18772174 58.98514973 0.79874307 48.93313659 0.31835938 38.78955078 C0.26486328 37.59313965 0.21136719 36.39672852 0.15625 35.1640625 C0.10275391 34.09623535 0.04925781 33.0284082 -0.00585938 31.92822266 C-0.00025 29.12493543 0.42323787 26.73064923 1 24 C0.68156267 21.99757428 0.34569865 19.99789979 0 18 C-0.12489931 14.8739891 -0.09492619 11.75288026 -0.0625 8.625 C-0.05798828 7.79355469 -0.05347656 6.96210938 -0.04882812 6.10546875 C-0.03713164 4.07028103 -0.01919935 2.03513077 0 0 Z " fill="#B58247" transform="translate(499,352)"/>
<path d="M0 0 C1.91015625 0.23046875 1.91015625 0.23046875 3.91015625 2.23046875 C4.15066528 4.55899048 4.15066528 4.55899048 4.13720703 7.50634766 C4.13698044 9.1578331 4.13698044 9.1578331 4.13674927 10.84268188 C4.1264267 12.03541718 4.11610413 13.22815247 4.10546875 14.45703125 C4.10263885 15.67498383 4.09980896 16.8929364 4.09689331 18.14779663 C4.08566881 22.05045258 4.06055997 25.95288178 4.03515625 29.85546875 C4.02512939 32.49609044 4.01600303 35.13671572 4.0078125 37.77734375 C3.98572206 44.26179655 3.95222217 50.74611645 3.91015625 57.23046875 C3.25015625 57.23046875 2.59015625 57.23046875 1.91015625 57.23046875 C1.91015625 58.22046875 1.91015625 59.21046875 1.91015625 60.23046875 C-1.82472152 59.73248505 -3.9022201 59.35555119 -7.08984375 57.23046875 C-7.45733643 54.87071228 -7.45733643 54.87071228 -7.44628906 51.87866211 C-7.44929016 50.76087875 -7.45229126 49.6430954 -7.4553833 48.49143982 C-7.4430365 47.2799678 -7.4306897 46.06849579 -7.41796875 44.8203125 C-7.41609558 43.58253555 -7.41422241 42.34475861 -7.41229248 41.06947327 C-7.40383269 37.77678353 -7.38182731 34.48452786 -7.35412598 31.19195557 C-7.33045157 27.83696882 -7.3291397 24.48201852 -7.32421875 21.12695312 C-7.31504904 18.58723478 -7.30467338 16.04752043 -7.29296875 13.5078125 C-7.28871887 12.29431625 -7.28446899 11.08082001 -7.28009033 9.83055115 C-7.27048279 8.71591995 -7.26087524 7.60128876 -7.25097656 6.45288086 C-7.24414856 5.4662999 -7.23732056 4.47971893 -7.23028564 3.46324158 C-6.94252905 -1.11156927 -3.92643601 0.0783862 0 0 Z M-4.08984375 2.23046875 C-5.3282702 3.24683834 -5.3282702 3.24683834 -5.21009827 5.36280823 C-5.20787766 6.30212692 -5.20565704 7.24144562 -5.20336914 8.20922852 C-5.20329361 9.27025284 -5.20321808 10.33127716 -5.20314026 11.42445374 C-5.19797897 12.57860275 -5.19281769 13.73275177 -5.1875 14.921875 C-5.18608505 16.09685043 -5.1846701 17.27182587 -5.18321228 18.48240662 C-5.17759367 22.25261939 -5.16503801 26.02277379 -5.15234375 29.79296875 C-5.14733115 32.34179602 -5.14276783 34.89062422 -5.13867188 37.43945312 C-5.12761819 43.70314508 -5.11086196 49.96680274 -5.08984375 56.23046875 C-3.10984375 56.23046875 -1.12984375 56.23046875 0.91015625 56.23046875 C0.91015625 38.41046875 0.91015625 20.59046875 0.91015625 2.23046875 C-0.73984375 2.23046875 -2.38984375 2.23046875 -4.08984375 2.23046875 Z " fill="#BA8950" transform="translate(612.08984375,730.76953125)"/>
<path d="M0 0 C1.1127832 -0.01836914 1.1127832 -0.01836914 2.24804688 -0.03710938 C4.18763629 -0.04238478 6.1267371 0.06561098 8.0625 0.1875 C8.7225 0.8475 9.3825 1.5075 10.0625 2.1875 C9.4025 2.1875 8.7425 2.1875 8.0625 2.1875 C8.0625 15.0575 8.0625 27.9275 8.0625 41.1875 C7.7325 41.1875 7.4025 41.1875 7.0625 41.1875 C7.0625 27.9875 7.0625 14.7875 7.0625 1.1875 C2.4425 1.1875 -2.1775 1.1875 -6.9375 1.1875 C-6.9375 35.1775 -6.9375 69.1675 -6.9375 104.1875 C-2.3175 104.1875 2.3025 104.1875 7.0625 104.1875 C7.0625 90.9875 7.0625 77.7875 7.0625 64.1875 C7.3925 64.1875 7.7225 64.1875 8.0625 64.1875 C8.0625 77.0575 8.0625 89.9275 8.0625 103.1875 C8.7225 103.1875 9.3825 103.1875 10.0625 103.1875 C9.7325 103.8475 9.4025 104.5075 9.0625 105.1875 C0.6475 105.6825 0.6475 105.6825 -7.9375 106.1875 C-9.08726406 103.88797187 -9.0632092 102.60031185 -9.06448364 100.04344177 C-9.06730347 99.17547974 -9.07012329 98.3075177 -9.07302856 97.41325378 C-9.07100433 96.45888931 -9.0689801 95.50452484 -9.06689453 94.52124023 C-9.06864685 93.51793671 -9.07039917 92.51463318 -9.07220459 91.48092651 C-9.07661888 88.15263152 -9.0736868 84.82438932 -9.0703125 81.49609375 C-9.07098561 79.19206227 -9.07195569 76.88803087 -9.07321167 74.58399963 C-9.07468803 69.75106125 -9.07253587 64.91814132 -9.06787109 60.08520508 C-9.06217066 53.87498985 -9.06545521 47.6648178 -9.07144356 41.45460415 C-9.07504812 36.69614839 -9.07391112 31.93770296 -9.07131577 27.1792469 C-9.07064637 24.88859108 -9.07147535 22.59793433 -9.07379532 20.30727959 C-9.07632047 17.11294934 -9.07248334 13.91869016 -9.06689453 10.72436523 C-9.06891876 9.76797653 -9.07094299 8.81158783 -9.07302856 7.82621765 C-9.07020874 6.96107544 -9.06738892 6.09593323 -9.06448364 5.20457458 C-9.06410662 4.4485366 -9.06372959 3.69249861 -9.06334114 2.91355038 C-8.73772026 -1.55269997 -3.40210681 0.00294046 0 0 Z " fill="#A7743D" transform="translate(725.9375,591.8125)"/>
<path d="M0 0 C0.33 0 0.66 0 1 0 C2.28714524 24.9285885 2.28714524 24.9285885 1.6875 36.875 C1.65277588 37.64561768 1.61805176 38.41623535 1.58227539 39.21020508 C1.35496808 42.89508606 1.01727076 45.85470437 -1 49 C-2 46 -2 46 -1 43 C-0.88764839 41.66548737 -0.82424351 40.32645611 -0.79467773 38.98754883 C-0.77473251 38.18694534 -0.75478729 37.38634186 -0.73423767 36.56147766 C-0.71752518 35.70201035 -0.70081268 34.84254303 -0.68359375 33.95703125 C-0.66281265 33.0734343 -0.64203156 32.18983734 -0.62062073 31.27946472 C-0.55524246 28.45722215 -0.49629472 25.63488665 -0.4375 22.8125 C-0.39430363 20.89907894 -0.35068898 18.98566727 -0.30664062 17.07226562 C-0.19957305 12.38160563 -0.09827248 7.69085217 0 3 C-2.31 3 -4.62 3 -7 3 C-6.98428955 4.07894531 -6.9685791 5.15789063 -6.95239258 6.26953125 C-6.89777101 10.30249459 -6.8635336 14.33542573 -6.83520508 18.36865234 C-6.82019146 20.10861728 -6.79977423 21.84854484 -6.77368164 23.58837891 C-6.73696893 26.1006802 -6.72019931 28.6124778 -6.70703125 31.125 C-6.69154739 31.89303955 -6.67606354 32.6610791 -6.66011047 33.45239258 C-6.65826854 39.46904107 -7.63245287 45.17715535 -11.625 49.9375 C-15.33107367 51.59548033 -18.94537645 52.14705889 -23 52 C-26.5625 50.5625 -26.5625 50.5625 -29 49 C-29 48.01 -29 47.02 -29 46 C-28.525625 46.495 -28.05125 46.99 -27.5625 47.5 C-23.83997037 49.67904173 -20.22617436 49.57291448 -16 49 C-13.45401262 48.09137769 -12.31182757 47.51623445 -10.9046936 45.18670654 C-9.95021796 42.87967339 -9.7271422 41.26567862 -9.68115234 38.78222656 C-9.66128265 37.96167786 -9.64141296 37.14112915 -9.62094116 36.29571533 C-9.60361435 34.98144562 -9.60361435 34.98144562 -9.5859375 33.640625 C-9.56657135 32.73624695 -9.5472052 31.8318689 -9.5272522 30.90008545 C-9.46756169 28.01681901 -9.42111314 25.13351242 -9.375 22.25 C-9.33681053 20.29295152 -9.29775823 18.33591967 -9.2578125 16.37890625 C-9.16186875 11.58607289 -9.07779873 6.79316085 -9 2 C-6.06193103 1.02064368 -4.04722362 1 -1 1 C-0.67 0.67 -0.34 0.34 0 0 Z " fill="#B58349" transform="translate(495,730)"/>
<path d="M0 0 C0.66 0 1.32 0 2 0 C1.9285376 0.64291992 1.8570752 1.28583984 1.78344727 1.94824219 C0.824481 11.72048535 0.88747747 21.44369685 0.9375 31.25 C0.94252757 32.97786328 0.94708824 34.70572798 0.95117188 36.43359375 C0.96207203 40.62243168 0.97926652 44.81119967 1 49 C0.67 49 0.34 49 0 49 C-0.96799592 44.15667095 -1.13122086 39.45861984 -1.09765625 34.5390625 C-1.0962413 33.74849457 -1.09482635 32.95792664 -1.09336853 32.1434021 C-1.08780504 29.63722834 -1.07525944 27.13114642 -1.0625 24.625 C-1.05748028 22.91797005 -1.0529182 21.21093868 -1.04882812 19.50390625 C-1.03784759 15.33590252 -1.02060839 11.16796679 -1 7 C-5.87015901 17.93193237 -5.87015901 17.93193237 -9.3125 29.375 C-9.61800781 30.64085937 -9.92351562 31.90671875 -10.23828125 33.2109375 C-11.61904904 40.07937217 -12.16780501 46.64319755 -12.125 53.625 C-12.12306641 54.39827637 -12.12113281 55.17155273 -12.11914062 55.96826172 C-12.06704916 63.00784482 -11.63132859 69.98774316 -11 77 C-18.00975271 66.48537094 -15.05485533 44.67206578 -12.8125 32.6875 C-9.98408889 21.13595183 -5.58334165 10.47596062 0 0 Z " fill="#B2824A" transform="translate(363,203)"/>
<path d="M0 0 C24.29312416 0.05350908 24.29312416 0.05350908 32.296875 5.1328125 C32.791875 6.1228125 32.791875 6.1228125 33.296875 7.1328125 C32.61625 6.8440625 31.935625 6.5553125 31.234375 6.2578125 C19.48914683 1.75964001 12.69509541 2.75882208 -1.703125 2.1328125 C-1.703125 19.9528125 -1.703125 37.7728125 -1.703125 56.1328125 C7.206875 55.8028125 16.116875 55.4728125 25.296875 55.1328125 C17.75880925 60.15818967 6.05750758 58.23794009 -2.703125 58.1328125 C-3.49824041 54.62984547 -3.82938036 51.39683679 -3.83251953 47.80761719 C-3.83567169 46.77014343 -3.83882385 45.73266968 -3.84207153 44.66375732 C-3.8400473 43.55526428 -3.83802307 42.44677124 -3.8359375 41.3046875 C-3.83689423 40.15993958 -3.83785095 39.01519165 -3.83883667 37.83575439 C-3.83951614 35.42175237 -3.83767813 33.0077485 -3.83349609 30.59375 C-3.82812494 26.88277129 -3.83345907 23.17191254 -3.83984375 19.4609375 C-3.83918331 17.11718723 -3.83790287 14.77343704 -3.8359375 12.4296875 C-3.83796173 11.31309753 -3.83998596 10.19650757 -3.84207153 9.04608154 C-3.83891937 8.02121643 -3.83576721 6.99635132 -3.83251953 5.94042969 C-3.83172394 5.03395691 -3.83092834 4.12748413 -3.83010864 3.19354248 C-3.63489987 0.02563395 -3.20521014 0.15748142 0 0 Z " fill="#A7753D" transform="translate(532.703125,730.8671875)"/>
<path d="M0 0 C0.33 0 0.66 0 1 0 C1.17370098 1.89520178 1.33842399 3.79122602 1.5 5.6875 C1.5928125 6.74324219 1.685625 7.79898438 1.78125 8.88671875 C2.17192031 14.58043332 2.03875891 20.2965185 2 26 C5.93289545 25.88162872 9.86555666 25.75737207 13.7980957 25.62768555 C15.79303319 25.56312994 17.78811929 25.5032217 19.78320312 25.44335938 C21.66362305 25.38051758 21.66362305 25.38051758 23.58203125 25.31640625 C24.73936768 25.27974854 25.8967041 25.24309082 27.08911133 25.20532227 C30.0643446 25.11671491 30.0643446 25.11671491 33 24 C34.32 24.66 35.64 25.32 37 26 C37 30.95 37 35.9 37 41 C33.4591786 42.1802738 30.37644627 42.0238386 26.70703125 41.87890625 C25.64798836 41.84348976 25.64798836 41.84348976 24.56755066 41.80735779 C22.31565493 41.73087055 20.06411613 41.64678253 17.8125 41.5625 C16.28452259 41.50926432 14.75652784 41.45652401 13.22851562 41.40429688 C9.48545165 41.27527576 5.74268981 41.13943788 2 41 C2 40.67 2 40.34 2 40 C12.89 40 23.78 40 35 40 C35 35.71 35 31.42 35 27 C23.45 27 11.9 27 0 27 C0 18.09 0 9.18 0 0 Z " fill="#B07D44" transform="translate(336,608)"/>
<path d="M0 0 C3.58809762 1.79404881 5.43275741 3.16208392 8.1875 5.9375 C9.22970703 6.97197266 9.22970703 6.97197266 10.29296875 8.02734375 C12 10 12 10 13 13 C12.34 13 11.68 13 11 13 C9.30859375 11.28515625 9.30859375 11.28515625 7.4375 9.0625 C6.81746094 8.33160156 6.19742187 7.60070312 5.55859375 6.84765625 C5.04425781 6.23792969 4.52992188 5.62820313 4 5 C3.67 4.67 3.34 4.34 3 4 C1.72172783 10.83548496 1.89151283 17.62039168 1.9375 24.5546875 C1.94328386 26.53622976 1.94906237 28.51777206 1.95451355 30.49931526 C1.96540596 33.95789671 1.98293162 37.41644443 2 40.875 C2.02037275 45.02612797 2.03956871 49.1772363 2.05102539 53.32839966 C2.05859191 55.90920764 2.07069579 58.49000686 2.08764648 61.07077026 C2.09260132 62.80860275 2.09260132 62.80860275 2.09765625 64.58154297 C2.10551147 66.11873489 2.10551147 66.11873489 2.11352539 67.6869812 C2 70 2 70 1 71 C-1.53049402 71.07313567 -4.03304837 71.09247527 -6.5625 71.0625 C-7.27341797 71.05798828 -7.98433594 71.05347656 -8.71679688 71.04882812 C-10.47790013 71.03700864 -12.23896036 71.01907263 -14 71 C-14 70.67 -14 70.34 -14 70 C-9.38 70 -4.76 70 0 70 C0 46.9 0 23.8 0 0 Z " fill="#A16D35" transform="translate(423,626)"/>
<path d="M0 0 C1.20967877 3.62903632 0.91640143 6.25459219 0.625 10.0625 C0.53476562 11.31160156 0.44453125 12.56070313 0.3515625 13.84765625 C0 17 0 17 -1 19 C-1.66 18.67 -2.32 18.34 -3 18 C-5.33849534 17.9077935 -7.67971042 17.88250798 -10.02001953 17.88647461 C-10.74207581 17.88632858 -11.46413208 17.88618256 -12.20806885 17.8860321 C-14.59968041 17.88672993 -16.99121451 17.89451625 -19.3828125 17.90234375 C-21.03905189 17.90420839 -22.69529184 17.90563208 -24.35153198 17.90663147 C-28.71467608 17.91045301 -33.077787 17.92028022 -37.44091797 17.93133545 C-41.89159699 17.94155736 -46.34228137 17.94613076 -50.79296875 17.95117188 C-59.52866108 17.9619028 -68.26432641 17.97897488 -77 18 C-76.3791378 14.31702134 -75.93325018 12.42311971 -73 10 C-73.50603992 12.16874252 -73.99983813 13.99967627 -75 16 C-50.91 16 -26.82 16 -2 16 C-2 11.71 -2 7.42 -2 3 C-3.32 2.67 -4.64 2.34 -6 2 C-2.25 0 -2.25 0 0 0 Z " fill="#A6743E" transform="translate(295,680)"/>
<path d="M0 0 C15.18 0 30.36 0 46 0 C46 15.84 46 31.68 46 48 C50.62 48 55.24 48 60 48 C59.505 48.99 59.505 48.99 59 50 C56.68756208 50.02685412 54.3750373 50.04632841 52.0625 50.0625 C50.77472656 50.07410156 49.48695313 50.08570313 48.16015625 50.09765625 C45 50 45 50 44 49 C43.8994086 46.99291687 43.86918101 44.98225754 43.8671875 42.97265625 C43.86525391 41.0690332 43.86525391 41.0690332 43.86328125 39.12695312 C43.86537598 38.45672119 43.8674707 37.78648926 43.86962891 37.09594727 C43.87482243 35.12972577 43.8692425 33.16348494 43.86328125 31.19726562 C43.87339675 21.06658838 44.43594509 11.15298829 45 1 C30.15 1 15.3 1 0 1 C0 0.67 0 0.34 0 0 Z " fill="#AD7C44" transform="translate(736,648)"/>
<path d="M0 0 C3.02084307 1.51042153 3.68510653 3.89876211 5.1875 6.875 C5.73792969 7.94492188 6.28835938 9.01484375 6.85546875 10.1171875 C8 13 8 13 7 16 C5.02 12.535 5.02 12.535 3 9 C3.15984375 10.30453125 3.3196875 11.6090625 3.484375 12.953125 C4.77744443 24.70079829 4.33461888 36.37340442 2.6875 48.0625 C2.56987305 48.90586914 2.45224609 49.74923828 2.33105469 50.61816406 C1.41098065 56.59276249 -0.1341005 62.25425059 -2 68 C-3.07663955 64.26322341 -2.69797326 62.15828852 -1.6875 58.375 C1.90554528 42.4391788 2.98318539 25.76943109 0.5078125 9.609375 C0.04827301 6.34310969 -0.09199112 3.29123772 0 0 Z " fill="#B4834B" transform="translate(658,202)"/>
<path d="M0 0 C3.79336648 0.21074258 6.76785416 1.03321333 10.375 2.1875 C10.375 2.5175 10.375 2.8475 10.375 3.1875 C9.4634314 3.20937378 9.4634314 3.20937378 8.53344727 3.23168945 C-15.62041903 3.87551955 -36.80058628 7.1108416 -58.296875 18.515625 C-60.84732978 19.79683937 -62.84697034 20.7104646 -65.625 21.1875 C-63.51496213 18.90507208 -61.49696549 17.41200234 -58.75390625 15.9609375 C-58.01462891 15.5690625 -57.27535156 15.1771875 -56.51367188 14.7734375 C-55.74603516 14.37382812 -54.97839844 13.97421875 -54.1875 13.5625 C-53.42373047 13.15515625 -52.65996094 12.7478125 -51.87304688 12.328125 C-48.45311569 10.53035439 -45.405384 9.0435153 -41.625 8.1875 C-40.42875 7.81753906 -39.2325 7.44757813 -38 7.06640625 C-27.8254028 3.96830781 -18.06531787 2.35163965 -7.46484375 1.546875 C-3.75598916 1.19975941 -3.34882206 0.23920158 0 0 Z " fill="#B48248" transform="translate(511.625,167.8125)"/>
<path d="M0 0 C0.66 0 1.32 0 2 0 C1.25 2.875 1.25 2.875 0 6 C-1.32586988 6.68138923 -2.66047258 7.34586812 -4 8 C-5.39604383 9.33246163 -6.74667975 10.71326014 -8.0625 12.125 C-20.18739636 24.42675871 -35.37953299 32.63425813 -51.8125 37.625 C-52.66642334 37.88490723 -53.52034668 38.14481445 -54.40014648 38.41259766 C-60.99421046 40.28072822 -60.99421046 40.28072822 -65 39 C-64.26587891 38.77449463 -63.53175781 38.54898926 -62.77539062 38.31665039 C-37.84472879 30.57167569 -18.94152994 21.52894925 -1 2 C-0.67 1.34 -0.34 0.68 0 0 Z " fill="#B58246" transform="translate(665,383)"/>
<path d="M0 0 C0.99 0.66 1.98 1.32 3 2 C3.22137393 4.62697064 3.28162025 7.00893964 3.1875 9.625 C3.16719727 10.68460938 3.16719727 10.68460938 3.14648438 11.765625 C3.1111104 13.51074128 3.05730221 15.25546608 3 17 C-33.46426652 18.40027356 -33.46426652 18.40027356 -51 17 C-51 16.67 -51 16.34 -51 16 C-33.84 16 -16.68 16 1 16 C1 11.71 1 7.42 1 3 C-6.92 3 -14.84 3 -23 3 C-23 2.67 -23 2.34 -23 2 C-15.41 2 -7.82 2 0 2 C0 1.34 0 0.68 0 0 Z " fill="#AA733A" transform="translate(376,680)"/>
<path d="M0 0 C2.67158847 2.67158847 3.18754835 5.64825206 4.1875 9.1875 C6.15544346 15.89075957 8.69282853 22.07334748 11.85229492 28.30151367 C12.62080627 29.84254232 13.31756984 31.41896614 14 33 C13.67 33.66 13.34 34.32 13 35 C11.705826 32.43873936 10.41459216 29.87606642 9.125 27.3125 C8.76019531 26.59126953 8.39539063 25.87003906 8.01953125 25.12695312 C6.1820758 21.46874636 4.43861498 17.8388305 3 14 C2.87847513 21.73708326 3.15199233 29.307359 4 37 C1.20362486 34.20362486 1.2841304 31.26996443 0.875 27.5 C0.79008301 26.75693604 0.70516602 26.01387207 0.61767578 25.24829102 C-0.25533596 16.83698976 -0.17777773 8.44444216 0 0 Z " fill="#B7874E" transform="translate(335,290)"/>
<path d="M0 0 C1.98 0 3.96 0 6 0 C6.80688405 3.94476647 7.00000429 5.99998285 6 10 C1.05 10 -3.9 10 -9 10 C-9.33 25.18 -9.66 40.36 -10 56 C-10.33 56 -10.66 56 -11 56 C-11 40.49 -11 24.98 -11 9 C-8.16730334 7.58365167 -5.52533562 7.6536995 -2.375 7.4375 C-0.59222656 7.31181641 -0.59222656 7.31181641 1.2265625 7.18359375 C2.14179688 7.12300781 3.05703125 7.06242188 4 7 C4 5.35 4 3.7 4 2 C2.68 1.34 1.36 0.68 0 0 Z " fill="#C08E54" transform="translate(420,731)"/>
<path d="M0 0 C5.82853967 4.86583653 5.82853967 4.86583653 6.55078125 9.31640625 C5.82890625 8.57390625 5.10703125 7.83140625 4.36328125 7.06640625 C-2.6173559 0.24089437 -7.71190563 -2.85106901 -17.51171875 -2.93359375 C-21.9155062 -2.87520099 -26.1467077 -2.67011625 -30.44921875 -1.68359375 C-31.69096671 0.21652395 -31.69096671 0.21652395 -32.44921875 2.31640625 C-35.44921875 4.31640625 -35.44921875 4.31640625 -38.44921875 4.31640625 C-38.44921875 3.65640625 -38.44921875 2.99640625 -38.44921875 2.31640625 C-27.26234939 -7.41590563 -12.31989761 -8.46870155 0 0 Z " fill="#B7854A" transform="translate(691.44921875,735.68359375)"/>
<path d="M0 0 C0.99 0.66 1.98 1.32 3 2 C3 2.66 3 3.32 3 4 C8.7788782 6.70884916 14.79144455 7.74615622 21 6 C20.67 6.66 20.34 7.32 20 8 C14.29539689 9.69355405 9.48102617 8.9088153 4.04296875 6.7890625 C2.00798447 6.00308387 0.16164279 5.31722221 -2 5 C-2.66 5.66 -3.32 6.32 -4 7 C-2.68 8.65 -1.36 10.3 0 12 C-3.36720387 10.60667426 -4.9859524 9.0210714 -7 6 C-4.69 4.02 -2.38 2.04 0 0 Z " fill="#B7884F" transform="translate(328,773)"/>
<path d="M0 0 C2.40407155 2.99801864 4.12484186 6.02024963 5.75 9.5 C6.19859375 10.4384375 6.6471875 11.376875 7.109375 12.34375 C8 15 8 15 7 19 C6.01 16.36 5.02 13.72 4 11 C3.67 17.93 3.34 24.86 3 32 C2.67 32 2.34 32 2 32 C1.93941406 30.69546875 1.87882813 29.3909375 1.81640625 28.046875 C1.37101374 18.6801898 0.89191377 9.33662921 0 0 Z " fill="#D6A96E" transform="translate(660,208)"/>
<path d="M0 0 C3.58809762 1.79404881 5.43275741 3.16208392 8.1875 5.9375 C9.22970703 6.97197266 9.22970703 6.97197266 10.29296875 8.02734375 C12 10 12 10 13 13 C12.34 13 11.68 13 11 13 C9.30859375 11.28515625 9.30859375 11.28515625 7.4375 9.0625 C6.81746094 8.33160156 6.19742187 7.60070312 5.55859375 6.84765625 C5.04425781 6.23792969 4.52992188 5.62820313 4 5 C3.67 4.67 3.34 4.34 3 4 C1.9287172 10.02596573 1.90054585 15.88909517 2 22 C1.34 22 0.68 22 0 22 C0 14.74 0 7.48 0 0 Z " fill="#AD7940" transform="translate(423,626)"/>
<path d="M0 0 C0.99 0.66 1.98 1.32 3 2 C3.22137393 4.62697064 3.28162025 7.00893964 3.1875 9.625 C3.16719727 10.68460938 3.16719727 10.68460938 3.14648438 11.765625 C3.1111104 13.51074128 3.05730221 15.25546608 3 17 C2.34 16.67 1.68 16.34 1 16 C1 11.71 1 7.42 1 3 C-6.92 3 -14.84 3 -23 3 C-23 2.67 -23 2.34 -23 2 C-15.41 2 -7.82 2 0 2 C0 1.34 0 0.68 0 0 Z " fill="#B17D42" transform="translate(376,680)"/>
<path d="M0 0 C26.5565639 -0.35833445 26.5565639 -0.35833445 35 5 C35.495 5.99 35.495 5.99 36 7 C35.319375 6.71125 34.63875 6.4225 33.9375 6.125 C26.0510397 3.1046535 19.50338448 2.75023423 11.0625 2.875 C9.32129883 2.88853516 9.32129883 2.88853516 7.54492188 2.90234375 C4.69639892 2.92578838 1.84830922 2.95860478 -1 3 C-0.67 2.01 -0.34 1.02 0 0 Z " fill="#AF7C43" transform="translate(530,731)"/>
<path d="M0 0 C6.26526472 1.89856507 11.10682824 6.11275862 14.4375 11.6875 C16 15 16 15 16 18 C11.61110675 17.33501617 8.0188515 15.81242323 4 14 C7.76624671 12.74458443 9.37188934 13.62938042 13 15 C10.2666928 9.17686728 7.03917795 6.13140865 1.828125 2.3828125 C1.22484375 1.92648437 0.6215625 1.47015625 0 1 C0 0.67 0 0.34 0 0 Z " fill="#B58349" transform="translate(441,428)"/>
<path d="M0 0 C1.20967877 3.62903632 0.91640143 6.25459219 0.625 10.0625 C0.53476562 11.31160156 0.44453125 12.56070313 0.3515625 13.84765625 C0 17 0 17 -1 19 C-2.98 18.34 -4.96 17.68 -7 17 C-7 16.67 -7 16.34 -7 16 C-5.35 16 -3.7 16 -2 16 C-2 11.71 -2 7.42 -2 3 C-3.32 2.67 -4.64 2.34 -6 2 C-2.25 0 -2.25 0 0 0 Z " fill="#B7854C" transform="translate(295,680)"/>
<path d="M0 0 C0 3 0 3 -1.19335938 4.53393555 C-1.73798828 5.062854 -2.28261719 5.59177246 -2.84375 6.13671875 C-3.72353516 7.00200195 -3.72353516 7.00200195 -4.62109375 7.88476562 C-5.24113281 8.47966797 -5.86117187 9.07457031 -6.5 9.6875 C-7.12003906 10.29400391 -7.74007812 10.90050781 -8.37890625 11.52539062 C-9.91264707 13.02373743 -11.45548198 14.51276493 -13 16 C-13.66 15.67 -14.32 15.34 -15 15 C-13.25420935 13.0585604 -11.50362507 11.12184216 -9.75 9.1875 C-9.25886719 8.64029297 -8.76773438 8.09308594 -8.26171875 7.52929688 C-5.68270045 4.69237675 -3.19370806 2.16715904 0 0 Z " fill="#CFA165" transform="translate(567,352)"/>
<path d="M0 0 C-2.49325196 2.49325196 -3.86700025 2.44794997 -7.3125 2.9375 C-11.52513685 3.62674032 -14.47200159 4.49625919 -18 7 C-18.66 7 -19.32 7 -20 7 C-19.67 5.35 -19.34 3.7 -19 2 C-18.67 2.66 -18.34 3.32 -18 4 C-16.4221875 3.2884375 -16.4221875 3.2884375 -14.8125 2.5625 C-9.78982715 0.42433405 -5.46836736 -0.12717133 0 0 Z " fill="#BC8A4F" transform="translate(586,440)"/>
<path d="M0 0 C0.33 0 0.66 0 1 0 C1 2.31 1 4.62 1 7 C5.62 7 10.24 7 15 7 C14.67 7.66 14.34 8.32 14 9 C11.68756208 9.02685412 9.3750373 9.04632841 7.0625 9.0625 C5.77472656 9.07410156 4.48695313 9.08570313 3.16015625 9.09765625 C0 9 0 9 -1 8 C-0.82364548 5.30917128 -0.38164079 2.67148554 0 0 Z " fill="#A67843" transform="translate(781,689)"/>
<path d="M0 0 C0.66 0.33 1.32 0.66 2 1 C1.45859375 1.74443359 1.45859375 1.74443359 0.90625 2.50390625 C-2.36651444 7.29486975 -3.60391104 10.20245406 -3 16 C-4.32 14.68 -5.64 13.36 -7 12 C-4.69 8.04 -2.38 4.08 0 0 Z " fill="#B9874C" transform="translate(460,480)"/>
<path d="M0 0 C0.66 0 1.32 0 2 0 C0.51546392 5.69072165 0.51546392 5.69072165 -1.875 7.125 C-2.57625 7.41375 -3.2775 7.7025 -4 8 C-5.37086915 9.29470975 -6.71340837 10.62150897 -8 12 C-8.66 11.67 -9.32 11.34 -10 11 C-9.36191406 10.37351562 -8.72382812 9.74703125 -8.06640625 9.1015625 C-7.24011719 8.28429687 -6.41382813 7.46703125 -5.5625 6.625 C-4.73878906 5.81289063 -3.91507813 5.00078125 -3.06640625 4.1640625 C-0.96565328 2.17651485 -0.96565328 2.17651485 0 0 Z " fill="#B8884E" transform="translate(665,383)"/>
<path d="M0 0 C3.48331435 3.01887244 4.79157144 5.56909529 6 10 C2.20411134 9.45773019 0.52788007 7.79872437 -2 5 C-0.68 5.33 0.64 5.66 2 6 C1.34 4.02 0.68 2.04 0 0 Z " fill="#BD8B51" transform="translate(451,404)"/>
<path d="M0 0 C0.66 0.66 1.32 1.32 2 2 C1.3503125 2.61875 1.3503125 2.61875 0.6875 3.25 C-1.07549274 4.99280873 -1.07549274 4.99280873 -2.5625 7.1875 C-3.2740625 8.0846875 -3.2740625 8.0846875 -4 9 C-5.66666667 9 -7.33333333 9 -9 9 C-6.03 6.03 -3.06 3.06 0 0 Z " fill="#D3A467" transform="translate(663,388)"/>
<path d="M0 0 C3.12857014 1.3881735 5.28189174 3.01101878 7.6875 5.4375 C8.28949219 6.03433594 8.89148438 6.63117187 9.51171875 7.24609375 C11 9 11 9 12 12 C10 12 10 12 8.37890625 10.390625 C7.77949219 9.68421875 7.18007813 8.9778125 6.5625 8.25 C5.96566406 7.55390625 5.36882812 6.8578125 4.75390625 6.140625 C3.10918902 4.13326411 1.53873892 2.08929688 0 0 Z " fill="#BD894D" transform="translate(424,627)"/>
<path d="M0 0 C2.5 2.3125 2.5 2.3125 5 5 C5 8 5 8 3 11 C2.49384702 9.73160474 1.99530901 8.46016898 1.5 7.1875 C1.2215625 6.47980469 0.943125 5.77210938 0.65625 5.04296875 C0 3 0 3 0 0 Z " fill="#BB8A52" transform="translate(356,382)"/>
<path d="M0 0 C1 2 1 2 1 4 C1.66 4.33 2.32 4.66 3 5 C1.02 6.32 -0.96 7.64 -3 9 C-3.33 8.34 -3.66 7.68 -4 7 C-3.22265625 5.2734375 -3.22265625 5.2734375 -2.0625 3.375 C-1.381875 2.26125 -0.70125 1.1475 0 0 Z " fill="#BF8D51" transform="translate(570,406)"/>
<path d="M0 0 C0.33 0.99 0.66 1.98 1 3 C-1.31 5.31 -3.62 7.62 -6 10 C-6.66 9.67 -7.32 9.34 -8 9 C-5.36 6.03 -2.72 3.06 0 0 Z " fill="#CFA066" transform="translate(639,301)"/>
<path d="M0 0 C0.86625 0.3403125 0.86625 0.3403125 1.75 0.6875 C-2.875 4.6875 -2.875 4.6875 -6.25 4.6875 C-6.25 4.0275 -6.25 3.3675 -6.25 2.6875 C-3.02697842 -0.42041367 -3.02697842 -0.42041367 0 0 Z " fill="#C39155" transform="translate(659.25,735.3125)"/>
<path d="M0 0 C1.485 0.99 1.485 0.99 3 2 C3.66 1.34 4.32 0.68 5 0 C5.625 2.375 5.625 2.375 6 5 C5.34 5.66 4.68 6.32 4 7 C0 2.25 0 2.25 0 0 Z " fill="#BD8A51" transform="translate(491,697)"/>
<path d="M0 0 C1.98 0 3.96 0 6 0 C6 0.33 6 0.66 6 1 C4.02 1 2.04 1 0 1 C0 0.67 0 0.34 0 0 Z " fill="#D5A466" transform="translate(273,680)"/>
<path d="M0 0 C1.98 0 3.96 0 6 0 C6 0.33 6 0.66 6 1 C4.02 1 2.04 1 0 1 C0 0.67 0 0.34 0 0 Z " fill="#D2A265" transform="translate(761,632)"/>
<path d="M0 0 C1 4 1 4 1 4 Z " fill="#CE9D63" transform="translate(412,755)"/>
<path d="M0 0 C1 4 1 4 1 4 Z " fill="#CE9E62" transform="translate(484,748)"/>
<path d="M0 0 C1 4 1 4 1 4 Z " fill="#D4A267" transform="translate(735,657)"/>
<path d="M0 0 C1 4 1 4 1 4 Z " fill="#D09E62" transform="translate(467,295)"/>
<path d="M0 0 C4 1 4 1 4 1 Z " fill="#C99D62" transform="translate(499,168)"/>
<path d="" fill="#C0945B" transform="translate(0,0)"/>
<path d="" fill="#C99B60" transform="translate(0,0)"/>
<path d="M0 0 C0.66 0 1.32 0 2 0 C1.67 0.66 1.34 1.32 1 2 C0.67 1.34 0.34 0.68 0 0 Z " fill="#CE9D61" transform="translate(679,742)"/>
<path d="M0 0 C3 1 3 1 3 1 Z " fill="#D5A365" transform="translate(257,680)"/>
<path d="M0 0 C3 1 3 1 3 1 Z " fill="#D3A367" transform="translate(753,632)"/>
<path d="" fill="#CF9F64" transform="translate(0,0)"/>
<path d="M0 0 C0.99 0.495 0.99 0.495 2 1 C1.01 1.495 1.01 1.495 0 2 C0 1.34 0 0.68 0 0 Z " fill="#D0A063" transform="translate(561,352)"/>
<path d="" fill="#C99C64" transform="translate(0,0)"/>
<path d="M0 0 C0.33 0.66 0.66 1.32 1 2 C0.34 1.67 -0.32 1.34 -1 1 C-0.67 0.67 -0.34 0.34 0 0 Z " fill="#B68F5D" transform="translate(663,204)"/>
<path d="M0 0 C3 1 3 1 3 1 Z " fill="#D3A164" transform="translate(528,187)"/>
<path d="M0 0 C2 1 2 1 2 1 Z " fill="#C2955B" transform="translate(472,791)"/>
<path d="M0 0 C2 1 2 1 2 1 Z " fill="#C1945B" transform="translate(467,790)"/>
<path d="M0 0 C2 1 2 1 2 1 Z " fill="#C2955C" transform="translate(465,789)"/>
<path d="" fill="#C4965D" transform="translate(0,0)"/>
<path d="" fill="#C7985F" transform="translate(0,0)"/>
<path d="" fill="#CA9B60" transform="translate(0,0)"/>
<path d="" fill="#C89A61" transform="translate(0,0)"/>
<path d="" fill="#D09E61" transform="translate(0,0)"/>
<path d="" fill="#CF9D63" transform="translate(0,0)"/>
<path d="" fill="#D09C61" transform="translate(0,0)"/>
<path d="M0 0 C2 1 2 1 2 1 Z " fill="#D09E63" transform="translate(547,742)"/>
<path d="" fill="#CA9B60" transform="translate(0,0)"/>
<path d="" fill="#CE9E62" transform="translate(0,0)"/>
<path d="M0 0 C2 1 2 1 2 1 Z " fill="#D6A365" transform="translate(373,680)"/>
<path d="M0 0 C2 1 2 1 2 1 Z " fill="#D7A566" transform="translate(365,680)"/>
<path d="M0 0 C2 1 2 1 2 1 Z " fill="#D5A367" transform="translate(357,680)"/>
<path d="M0 0 C2 1 2 1 2 1 Z " fill="#D4A264" transform="translate(261,680)"/>
<path d="" fill="#C2965F" transform="translate(0,0)"/>
<path d="M0 0 C2 1 2 1 2 1 Z " fill="#D2A164" transform="translate(773,632)"/>
<path d="M0 0 C2 1 2 1 2 1 Z " fill="#D5A468" transform="translate(738,632)"/>
<path d="M0 0 C2 1 2 1 2 1 Z " fill="#D5A365" transform="translate(357,632)"/>
<path d="M0 0 C2 1 2 1 2 1 Z " fill="#D1A063" transform="translate(341,632)"/>
<path d="" fill="#D2A265" transform="translate(0,0)"/>
<path d="" fill="#CFA063" transform="translate(0,0)"/>
<path d="" fill="#CB9C64" transform="translate(0,0)"/>
<path d="" fill="#CE9F61" transform="translate(0,0)"/>
<path d="M0 0 C2 1 2 1 2 1 Z " fill="#CD9E66" transform="translate(401,437)"/>
<path d="M0 0 C2 1 2 1 2 1 Z " fill="#D3A267" transform="translate(401,301)"/>
<path d="" fill="#CE9F64" transform="translate(0,0)"/>
<path d="" fill="#D4A468" transform="translate(0,0)"/>
<path d="M0 0 C2 1 2 1 2 1 Z " fill="#D1A163" transform="translate(528,279)"/>
<path d="" fill="#D2A167" transform="translate(0,0)"/>
<path d="" fill="#CE9F65" transform="translate(0,0)"/>
<path d="" fill="#C89B62" transform="translate(0,0)"/>
<path d="" fill="#B8905F" transform="translate(0,0)"/>
<path d="M0 0 C2 1 2 1 2 1 Z " fill="#D3A365" transform="translate(478,191)"/>
<path d="" fill="#C1935B" transform="translate(0,0)"/>
<path d="" fill="#C1945B" transform="translate(0,0)"/>
<path d="" fill="#BF935A" transform="translate(0,0)"/>
<path d="" fill="#C5975C" transform="translate(0,0)"/>
<path d="" fill="#BE905D" transform="translate(0,0)"/>
<path d="" fill="#C3995E" transform="translate(0,0)"/>
<path d="" fill="#C69960" transform="translate(0,0)"/>
<path d="" fill="#BD915A" transform="translate(0,0)"/>
<path d="" fill="#CE9D61" transform="translate(0,0)"/>
<path d="" fill="#C99A62" transform="translate(0,0)"/>
<path d="" fill="#CD9F5F" transform="translate(0,0)"/>
<path d="" fill="#CE9F62" transform="translate(0,0)"/>
<path d="" fill="#C89A5F" transform="translate(0,0)"/>
<path d="" fill="#C99B60" transform="translate(0,0)"/>
<path d="" fill="#D09F61" transform="translate(0,0)"/>
<path d="" fill="#D09F64" transform="translate(0,0)"/>
<path d="" fill="#CF9C5F" transform="translate(0,0)"/>
<path d="" fill="#CE9F61" transform="translate(0,0)"/>
<path d="" fill="#CD9E61" transform="translate(0,0)"/>
<path d="" fill="#D1A163" transform="translate(0,0)"/>
<path d="" fill="#CC9B61" transform="translate(0,0)"/>
<path d="" fill="#D19F64" transform="translate(0,0)"/>
<path d="" fill="#D1A162" transform="translate(0,0)"/>
<path d="" fill="#D3A264" transform="translate(0,0)"/>
<path d="" fill="#C7985E" transform="translate(0,0)"/>
<path d="" fill="#CB9C61" transform="translate(0,0)"/>
<path d="" fill="#CE9C61" transform="translate(0,0)"/>
<path d="" fill="#D2A263" transform="translate(0,0)"/>
<path d="" fill="#CD9D62" transform="translate(0,0)"/>
<path d="" fill="#D09E61" transform="translate(0,0)"/>
<path d="" fill="#CE9F64" transform="translate(0,0)"/>
<path d="" fill="#D1A264" transform="translate(0,0)"/>
<path d="" fill="#CF9E63" transform="translate(0,0)"/>
<path d="" fill="#CF9D62" transform="translate(0,0)"/>
<path d="" fill="#D0A063" transform="translate(0,0)"/>
<path d="" fill="#CC9D60" transform="translate(0,0)"/>
<path d="" fill="#D1A062" transform="translate(0,0)"/>
<path d="" fill="#CB9B61" transform="translate(0,0)"/>
<path d="" fill="#CF9D61" transform="translate(0,0)"/>
<path d="" fill="#CE9E61" transform="translate(0,0)"/>
<path d="" fill="#C99A5F" transform="translate(0,0)"/>
<path d="" fill="#CEA064" transform="translate(0,0)"/>
<path d="" fill="#CE9C61" transform="translate(0,0)"/>
<path d="" fill="#CEA064" transform="translate(0,0)"/>
<path d="" fill="#CE9C62" transform="translate(0,0)"/>
<path d="" fill="#D2A164" transform="translate(0,0)"/>
<path d="" fill="#CE9F62" transform="translate(0,0)"/>
<path d="" fill="#CC9E60" transform="translate(0,0)"/>
<path d="" fill="#CE9D5F" transform="translate(0,0)"/>
<path d="" fill="#CB9C62" transform="translate(0,0)"/>
<path d="" fill="#D0A161" transform="translate(0,0)"/>
<path d="" fill="#CEA165" transform="translate(0,0)"/>
<path d="" fill="#CD9C60" transform="translate(0,0)"/>
<path d="" fill="#CE9D63" transform="translate(0,0)"/>
<path d="" fill="#D29F63" transform="translate(0,0)"/>
<path d="" fill="#D09F63" transform="translate(0,0)"/>
<path d="" fill="#CE9E62" transform="translate(0,0)"/>
<path d="" fill="#CD9F63" transform="translate(0,0)"/>
<path d="" fill="#CF9F63" transform="translate(0,0)"/>
<path d="" fill="#CC9E65" transform="translate(0,0)"/>
<path d="" fill="#BE9561" transform="translate(0,0)"/>
<path d="" fill="#CD9F66" transform="translate(0,0)"/>
<path d="" fill="#CB9E65" transform="translate(0,0)"/>
<path d="" fill="#D3A369" transform="translate(0,0)"/>
<path d="" fill="#B7905D" transform="translate(0,0)"/>
<path d="" fill="#D0A166" transform="translate(0,0)"/>
<path d="" fill="#D0A064" transform="translate(0,0)"/>
<path d="" fill="#CF9F65" transform="translate(0,0)"/>
<path d="" fill="#CF9F64" transform="translate(0,0)"/>
<path d="" fill="#BD915E" transform="translate(0,0)"/>
<path d="" fill="#D19D64" transform="translate(0,0)"/>
<path d="" fill="#BD925E" transform="translate(0,0)"/>
<path d="" fill="#D6A467" transform="translate(0,0)"/>
<path d="" fill="#D6A566" transform="translate(0,0)"/>
<path d="" fill="#D5A667" transform="translate(0,0)"/>
<path d="" fill="#D6A567" transform="translate(0,0)"/>
<path d="" fill="#D7A466" transform="translate(0,0)"/>
<path d="" fill="#D09F64" transform="translate(0,0)"/>
<path d="" fill="#D7A467" transform="translate(0,0)"/>
<path d="" fill="#D5A165" transform="translate(0,0)"/>
<path d="" fill="#C1955E" transform="translate(0,0)"/>
<path d="" fill="#D4A267" transform="translate(0,0)"/>
<path d="" fill="#CC9E63" transform="translate(0,0)"/>
<path d="" fill="#D5A266" transform="translate(0,0)"/>
<path d="" fill="#C3965F" transform="translate(0,0)"/>
<path d="" fill="#C2945E" transform="translate(0,0)"/>
<path d="" fill="#D4A366" transform="translate(0,0)"/>
<path d="" fill="#CFA064" transform="translate(0,0)"/>
<path d="" fill="#D3A367" transform="translate(0,0)"/>
<path d="" fill="#C2965E" transform="translate(0,0)"/>
<path d="" fill="#D1A264" transform="translate(0,0)"/>
<path d="" fill="#D5A467" transform="translate(0,0)"/>
<path d="" fill="#D4A164" transform="translate(0,0)"/>
<path d="" fill="#CF9F61" transform="translate(0,0)"/>
<path d="" fill="#C1945E" transform="translate(0,0)"/>
<path d="" fill="#CE9F62" transform="translate(0,0)"/>
<path d="" fill="#D4A366" transform="translate(0,0)"/>
<path d="" fill="#D09F63" transform="translate(0,0)"/>
<path d="" fill="#D2A164" transform="translate(0,0)"/>
<path d="" fill="#C1955E" transform="translate(0,0)"/>
<path d="" fill="#C1965F" transform="translate(0,0)"/>
<path d="" fill="#D3A266" transform="translate(0,0)"/>
<path d="" fill="#D4A164" transform="translate(0,0)"/>
<path d="" fill="#D4A265" transform="translate(0,0)"/>
<path d="" fill="#C1965E" transform="translate(0,0)"/>
<path d="" fill="#D09F62" transform="translate(0,0)"/>
<path d="" fill="#CC9C62" transform="translate(0,0)"/>
<path d="" fill="#D5A467" transform="translate(0,0)"/>
<path d="" fill="#D2A166" transform="translate(0,0)"/>
<path d="" fill="#D3A164" transform="translate(0,0)"/>
<path d="" fill="#D4A366" transform="translate(0,0)"/>
<path d="" fill="#D4A366" transform="translate(0,0)"/>
<path d="" fill="#D5A264" transform="translate(0,0)"/>
<path d="" fill="#D4A466" transform="translate(0,0)"/>
<path d="" fill="#D4A466" transform="translate(0,0)"/>
<path d="" fill="#D5A262" transform="translate(0,0)"/>
<path d="" fill="#D5A363" transform="translate(0,0)"/>
<path d="" fill="#D4A366" transform="translate(0,0)"/>
<path d="" fill="#C1965F" transform="translate(0,0)"/>
<path d="" fill="#D3A366" transform="translate(0,0)"/>
<path d="" fill="#D2A063" transform="translate(0,0)"/>
<path d="" fill="#D2A162" transform="translate(0,0)"/>
<path d="" fill="#D0A163" transform="translate(0,0)"/>
<path d="" fill="#D29F62" transform="translate(0,0)"/>
<path d="" fill="#D2A165" transform="translate(0,0)"/>
<path d="" fill="#D2A266" transform="translate(0,0)"/>
<path d="" fill="#D2A365" transform="translate(0,0)"/>
<path d="" fill="#CEA165" transform="translate(0,0)"/>
<path d="" fill="#D1A268" transform="translate(0,0)"/>
<path d="" fill="#D3A166" transform="translate(0,0)"/>
<path d="" fill="#BC925D" transform="translate(0,0)"/>
<path d="" fill="#CE9F64" transform="translate(0,0)"/>
<path d="" fill="#D4A366" transform="translate(0,0)"/>
<path d="" fill="#D0A063" transform="translate(0,0)"/>
<path d="" fill="#D1A163" transform="translate(0,0)"/>
<path d="" fill="#D1A064" transform="translate(0,0)"/>
<path d="" fill="#B98D5B" transform="translate(0,0)"/>
<path d="" fill="#C69860" transform="translate(0,0)"/>
<path d="" fill="#CC9F61" transform="translate(0,0)"/>
<path d="" fill="#CC9F63" transform="translate(0,0)"/>
<path d="" fill="#CE9B60" transform="translate(0,0)"/>
<path d="" fill="#D09E64" transform="translate(0,0)"/>
<path d="" fill="#CF9E61" transform="translate(0,0)"/>
<path d="" fill="#CDA063" transform="translate(0,0)"/>
<path d="" fill="#CE9F63" transform="translate(0,0)"/>
<path d="" fill="#D09F64" transform="translate(0,0)"/>
<path d="" fill="#CF9E63" transform="translate(0,0)"/>
<path d="" fill="#D09F62" transform="translate(0,0)"/>
<path d="" fill="#CE9E63" transform="translate(0,0)"/>
<path d="" fill="#CE9C61" transform="translate(0,0)"/>
<path d="" fill="#CE9F63" transform="translate(0,0)"/>
<path d="" fill="#D29F65" transform="translate(0,0)"/>
<path d="" fill="#D2A166" transform="translate(0,0)"/>
<path d="" fill="#CC9F63" transform="translate(0,0)"/>
<path d="" fill="#CFA265" transform="translate(0,0)"/>
<path d="" fill="#D19F64" transform="translate(0,0)"/>
<path d="" fill="#C8975C" transform="translate(0,0)"/>
<path d="" fill="#CA9C61" transform="translate(0,0)"/>
<path d="" fill="#CB9E63" transform="translate(0,0)"/>
<path d="" fill="#D0A064" transform="translate(0,0)"/>
<path d="" fill="#CE9C61" transform="translate(0,0)"/>
<path d="" fill="#CE9F64" transform="translate(0,0)"/>
<path d="" fill="#D2A064" transform="translate(0,0)"/>
<path d="" fill="#CF9F65" transform="translate(0,0)"/>
<path d="" fill="#D2A365" transform="translate(0,0)"/>
<path d="" fill="#D09F65" transform="translate(0,0)"/>
<path d="" fill="#D1A066" transform="translate(0,0)"/>
<path d="" fill="#CF9F63" transform="translate(0,0)"/>
<path d="" fill="#CE9F64" transform="translate(0,0)"/>
<path d="" fill="#D2A066" transform="translate(0,0)"/>
<path d="" fill="#D09E66" transform="translate(0,0)"/>
<path d="" fill="#D1A163" transform="translate(0,0)"/>
<path d="" fill="#D19F64" transform="translate(0,0)"/>
<path d="" fill="#CF9D63" transform="translate(0,0)"/>
<path d="" fill="#D1A065" transform="translate(0,0)"/>
<path d="" fill="#CD9F64" transform="translate(0,0)"/>
<path d="" fill="#CB9D62" transform="translate(0,0)"/>
<path d="" fill="#D2A162" transform="translate(0,0)"/>
<path d="" fill="#D1A264" transform="translate(0,0)"/>
<path d="" fill="#D5A469" transform="translate(0,0)"/>
<path d="" fill="#D3A367" transform="translate(0,0)"/>
<path d="" fill="#D2A268" transform="translate(0,0)"/>
<path d="" fill="#D2A366" transform="translate(0,0)"/>
<path d="" fill="#C79B62" transform="translate(0,0)"/>
<path d="" fill="#D1A164" transform="translate(0,0)"/>
<path d="" fill="#D1A166" transform="translate(0,0)"/>
<path d="" fill="#D2A063" transform="translate(0,0)"/>
<path d="" fill="#D3A265" transform="translate(0,0)"/>
<path d="" fill="#D2A265" transform="translate(0,0)"/>
<path d="" fill="#D4A266" transform="translate(0,0)"/>
<path d="" fill="#D2A165" transform="translate(0,0)"/>
<path d="" fill="#C49960" transform="translate(0,0)"/>
<path d="" fill="#D2A166" transform="translate(0,0)"/>
<path d="" fill="#D2A066" transform="translate(0,0)"/>
<path d="" fill="#CFA064" transform="translate(0,0)"/>
<path d="" fill="#D2A165" transform="translate(0,0)"/>
<path d="" fill="#D4A165" transform="translate(0,0)"/>
<path d="" fill="#D1A163" transform="translate(0,0)"/>
<path d="" fill="#D3A265" transform="translate(0,0)"/>
<path d="" fill="#D29F5F" transform="translate(0,0)"/>
<path d="" fill="#C29560" transform="translate(0,0)"/>
<path d="" fill="#D2A065" transform="translate(0,0)"/>
<path d="" fill="#D09F63" transform="translate(0,0)"/>
<path d="" fill="#CA9C63" transform="translate(0,0)"/>
<path d="" fill="#CA9E64" transform="translate(0,0)"/>
<path d="" fill="#D1A065" transform="translate(0,0)"/>
<path d="" fill="#D0A063" transform="translate(0,0)"/>
<path d="" fill="#D09E64" transform="translate(0,0)"/>
<path d="" fill="#D09F64" transform="translate(0,0)"/>
<path d="" fill="#CE9E63" transform="translate(0,0)"/>
<path d="" fill="#D1A266" transform="translate(0,0)"/>
<path d="" fill="#CEA163" transform="translate(0,0)"/>
<path d="" fill="#D0A265" transform="translate(0,0)"/>
<path d="" fill="#D09F64" transform="translate(0,0)"/>
<path d="" fill="#CEA065" transform="translate(0,0)"/>
<path d="" fill="#D19F63" transform="translate(0,0)"/>
<path d="" fill="#D2A067" transform="translate(0,0)"/>
<path d="" fill="#C99E63" transform="translate(0,0)"/>
<path d="" fill="#D19F66" transform="translate(0,0)"/>
<path d="" fill="#CFA261" transform="translate(0,0)"/>
<path d="" fill="#D19F65" transform="translate(0,0)"/>
<path d="" fill="#D2A065" transform="translate(0,0)"/>
<path d="" fill="#D2A063" transform="translate(0,0)"/>
<path d="" fill="#D3A366" transform="translate(0,0)"/>
<path d="" fill="#D3A266" transform="translate(0,0)"/>
<path d="" fill="#D2A265" transform="translate(0,0)"/>
<path d="" fill="#D0A166" transform="translate(0,0)"/>
<path d="" fill="#D2A065" transform="translate(0,0)"/>
<path d="" fill="#D2A064" transform="translate(0,0)"/>
<path d="" fill="#CF9D62" transform="translate(0,0)"/>
<path d="" fill="#D1A163" transform="translate(0,0)"/>
<path d="" fill="#CFA263" transform="translate(0,0)"/>
<path d="" fill="#CFA164" transform="translate(0,0)"/>
<path d="" fill="#D0A364" transform="translate(0,0)"/>
<path d="" fill="#D29F64" transform="translate(0,0)"/>
<path d="" fill="#D29F67" transform="translate(0,0)"/>
<path d="" fill="#CA9E64" transform="translate(0,0)"/>
<path d="" fill="#D29F65" transform="translate(0,0)"/>
<path d="" fill="#C79C61" transform="translate(0,0)"/>
<path d="" fill="#D2A265" transform="translate(0,0)"/>
<path d="" fill="#D3A166" transform="translate(0,0)"/>
<path d="" fill="#D2A164" transform="translate(0,0)"/>
<path d="" fill="#D2A466" transform="translate(0,0)"/>
<path d="" fill="#C59861" transform="translate(0,0)"/>
<path d="" fill="#D09C5E" transform="translate(0,0)"/>
<path d="" fill="#CF9E65" transform="translate(0,0)"/>
<path d="" fill="#CEA365" transform="translate(0,0)"/>
<path d="" fill="#CF9E63" transform="translate(0,0)"/>
<path d="" fill="#D1A164" transform="translate(0,0)"/>
<path d="" fill="#D1A065" transform="translate(0,0)"/>
<path d="" fill="#D2A262" transform="translate(0,0)"/>
<path d="" fill="#D1A266" transform="translate(0,0)"/>
<path d="" fill="#D4A266" transform="translate(0,0)"/>
<path d="" fill="#CE9F64" transform="translate(0,0)"/>
<path d="" fill="#CF9F67" transform="translate(0,0)"/>
<path d="" fill="#D3A467" transform="translate(0,0)"/>
<path d="" fill="#D1A368" transform="translate(0,0)"/>
<path d="" fill="#D19F62" transform="translate(0,0)"/>
<path d="" fill="#D1A067" transform="translate(0,0)"/>
<path d="" fill="#D2A467" transform="translate(0,0)"/>
<path d="" fill="#D0A265" transform="translate(0,0)"/>
<path d="" fill="#C59964" transform="translate(0,0)"/>
<path d="" fill="#D4A165" transform="translate(0,0)"/>
<path d="" fill="#D09F65" transform="translate(0,0)"/>
<path d="" fill="#CC9D62" transform="translate(0,0)"/>
<path d="" fill="#D1A163" transform="translate(0,0)"/>
<path d="" fill="#D1A164" transform="translate(0,0)"/>
<path d="" fill="#D2A064" transform="translate(0,0)"/>
<path d="" fill="#D3A165" transform="translate(0,0)"/>
<path d="" fill="#D2A062" transform="translate(0,0)"/>
<path d="" fill="#D2A061" transform="translate(0,0)"/>
<path d="" fill="#D2A068" transform="translate(0,0)"/>
<path d="" fill="#CA9C65" transform="translate(0,0)"/>
<path d="" fill="#CA9B63" transform="translate(0,0)"/>
<path d="" fill="#D2A164" transform="translate(0,0)"/>
<path d="" fill="#D2A165" transform="translate(0,0)"/>
<path d="" fill="#D29F64" transform="translate(0,0)"/>
<path d="" fill="#D2A066" transform="translate(0,0)"/>
<path d="" fill="#D1A166" transform="translate(0,0)"/>
<path d="" fill="#D3A165" transform="translate(0,0)"/>
<path d="" fill="#D0A064" transform="translate(0,0)"/>
<path d="" fill="#CC9C65" transform="translate(0,0)"/>
<path d="" fill="#D0A265" transform="translate(0,0)"/>
<path d="" fill="#D0A064" transform="translate(0,0)"/>
<path d="" fill="#C99C64" transform="translate(0,0)"/>
<path d="" fill="#D0A165" transform="translate(0,0)"/>
<path d="" fill="#D0A064" transform="translate(0,0)"/>
<path d="" fill="#D1A165" transform="translate(0,0)"/>
<path d="" fill="#D09F63" transform="translate(0,0)"/>
<path d="" fill="#D2A367" transform="translate(0,0)"/>
<path d="" fill="#B38B5B" transform="translate(0,0)"/>
<path d="" fill="#CA9A61" transform="translate(0,0)"/>
<path d="" fill="#D4A265" transform="translate(0,0)"/>
<path d="" fill="#D3A466" transform="translate(0,0)"/>
<path d="" fill="#D3A366" transform="translate(0,0)"/>
<path d="" fill="#D5A264" transform="translate(0,0)"/>
<path d="" fill="#C99C61" transform="translate(0,0)"/>
<path d="" fill="#C69860" transform="translate(0,0)"/>
<path d="" fill="#C79A5E" transform="translate(0,0)"/>
</svg>
